<?xml version="1.0" encoding="UTF-8"?>
<svg xmlns="http://www.w3.org/2000/svg" xmlns:xlink="http://www.w3.org/1999/xlink" width="144pt" height="144pt" viewBox="0 0 144 144" version="1.1">
<defs>
<clipPath id="clip1">
  <path d="M 8.015625 0 L 135.984375 0 L 135.984375 144 L 8.015625 144 Z M 8.015625 0 "/>
</clipPath>
</defs>
<g id="surface4">
<rect x="0" y="0" width="144" height="144" style="fill:rgb(100%,100%,100%);fill-opacity:1;stroke:none;"/>
<g clip-path="url(#clip1)" clip-rule="nonzero">
<path style=" stroke:none;fill-rule:nonzero;fill:rgb(100%,100%,100%);fill-opacity:1;" d="M 8.015625 144 L 135.984375 144 L 135.984375 0 L 8.015625 0 Z M 8.015625 144 "/>
</g>
<path style="fill:none;stroke-width:2.133957;stroke-linecap:butt;stroke-linejoin:round;stroke:rgb(0%,0%,0%);stroke-opacity:1;stroke-miterlimit:1;" d="M 120.472656 70.628906 L 119.523438 70.082031 L 117.617188 68.980469 L 116.667969 68.433594 L 115.714844 67.882813 L 114.765625 67.332031 L 113.8125 66.785156 L 112.859375 66.234375 L 111.910156 65.683594 L 110.957031 65.136719 L 110.007813 64.585938 L 109.054688 64.039063 L 108.101563 63.488281 L 107.152344 62.9375 L 106.199219 62.390625 L 105.25 61.839844 L 104.296875 61.289063 L 103.34375 60.742188 L 102.394531 60.191406 L 101.441406 59.640625 L 100.492188 59.09375 L 98.585938 57.992188 L 97.636719 57.445313 L 95.730469 56.34375 L 94.78125 55.796875 L 93.828125 55.246094 L 92.878906 54.699219 L 90.972656 53.597656 L 90.023438 53.050781 L 89.070313 52.5 L 88.121094 51.949219 L 87.167969 51.402344 L 86.214844 50.851563 L 85.265625 50.300781 L 84.3125 49.753906 L 83.363281 49.203125 L 82.410156 48.652344 L 81.457031 48.105469 L 80.507813 47.554688 L 79.554688 47.003906 L 78.605469 46.457031 L 77.652344 45.90625 L 76.699219 45.359375 L 75.75 44.808594 L 74.796875 44.257813 L 73.84375 43.710938 L 72.894531 43.160156 L 71.941406 42.609375 L 70.992188 42.0625 L 69.085938 40.960938 L 68.136719 40.414063 L 67.183594 39.863281 L 66.234375 39.3125 L 65.28125 38.765625 L 64.328125 38.214844 L 63.378906 37.664063 L 62.425781 37.117188 L 61.476563 36.566406 L 60.523438 36.019531 L 59.570313 35.46875 L 58.621094 34.917969 L 57.667969 34.371094 L 56.71875 33.820313 L 55.765625 33.269531 L 54.8125 32.722656 L 53.863281 32.171875 L 52.910156 31.621094 L 51.957031 31.074219 L 51.007813 30.523438 L 50.054688 29.972656 L 49.105469 29.425781 L 47.199219 28.324219 L 46.25 27.777344 L 45.296875 27.226563 L 44.347656 26.679688 L 42.441406 25.578125 L 41.492188 25.03125 L 40.539063 24.480469 L 39.589844 23.929688 L 38.636719 23.382813 L 37.683594 22.832031 L 36.734375 22.28125 L 35.78125 21.734375 L 34.832031 21.183594 L 33.878906 20.632813 L 32.925781 20.085938 L 31.976563 19.535156 L 31.023438 18.984375 L 30.070313 18.4375 L 29.121094 17.886719 L 28.167969 17.339844 L 27.21875 16.789063 L 26.265625 16.238281 "/>
<path style="fill:none;stroke-width:2.133957;stroke-linecap:butt;stroke-linejoin:round;stroke:rgb(0%,0%,0%);stroke-opacity:1;stroke-miterlimit:1;" d="M 120.472656 70.628906 L 119.523438 71.179688 L 118.570313 71.730469 L 117.617188 72.277344 L 116.667969 72.828125 L 115.714844 73.378906 L 114.765625 73.925781 L 113.8125 74.476563 L 112.859375 75.023438 L 111.910156 75.574219 L 110.957031 76.125 L 110.007813 76.671875 L 108.101563 77.773438 L 107.152344 78.320313 L 106.199219 78.871094 L 105.25 79.421875 L 104.296875 79.96875 L 103.34375 80.519531 L 102.394531 81.070313 L 101.441406 81.617188 L 100.492188 82.167969 L 99.539063 82.71875 L 98.585938 83.265625 L 97.636719 83.816406 L 96.683594 84.367188 L 95.730469 84.914063 L 94.78125 85.464844 L 93.828125 86.011719 L 92.878906 86.5625 L 91.925781 87.113281 L 90.972656 87.660156 L 90.023438 88.210938 L 89.070313 88.761719 L 88.121094 89.308594 L 86.214844 90.410156 L 85.265625 90.957031 L 84.3125 91.507813 L 83.363281 92.058594 L 82.410156 92.605469 L 81.457031 93.15625 L 80.507813 93.707031 L 79.554688 94.253906 L 78.605469 94.804688 L 77.652344 95.351563 L 76.699219 95.902344 L 75.75 96.453125 L 74.796875 97 L 73.84375 97.550781 L 72.894531 98.101563 L 71.941406 98.648438 L 70.992188 99.199219 L 70.039063 99.75 L 69.085938 100.296875 L 68.136719 100.847656 L 67.183594 101.398438 L 66.234375 101.945313 L 64.328125 103.046875 L 63.378906 103.59375 L 62.425781 104.144531 L 61.476563 104.691406 L 59.570313 105.792969 L 58.621094 106.339844 L 57.667969 106.890625 L 56.71875 107.441406 L 55.765625 107.988281 L 54.8125 108.539063 L 53.863281 109.089844 L 52.910156 109.636719 L 51.957031 110.1875 L 51.007813 110.738281 L 50.054688 111.285156 L 49.105469 111.835938 L 48.152344 112.386719 L 47.199219 112.933594 L 46.25 113.484375 L 45.296875 114.03125 L 44.347656 114.582031 L 43.394531 115.132813 L 42.441406 115.679688 L 41.492188 116.230469 L 40.539063 116.78125 L 39.589844 117.328125 L 37.683594 118.429688 L 36.734375 118.976563 L 35.78125 119.527344 L 34.832031 120.078125 L 33.878906 120.625 L 32.925781 121.175781 L 31.976563 121.726563 L 31.023438 122.273438 L 30.070313 122.824219 L 29.121094 123.371094 L 28.167969 123.921875 L 27.21875 124.472656 L 26.265625 125.019531 "/>
<path style="fill:none;stroke-width:2.133957;stroke-linecap:butt;stroke-linejoin:round;stroke:rgb(0%,0%,0%);stroke-opacity:1;stroke-dasharray:4.267913,4.267913;stroke-miterlimit:1;" d="M 26.265625 16.238281 L 26.265625 125.019531 "/>
<path style=" stroke:none;fill-rule:nonzero;fill:rgb(0%,26.27451%,30.980392%);fill-opacity:1;" d="M 131.496094 70.628906 C 131.496094 76.71875 126.5625 81.652344 120.472656 81.652344 C 114.386719 81.652344 109.449219 76.71875 109.449219 70.628906 C 109.449219 64.542969 114.386719 59.605469 120.472656 59.605469 C 126.5625 59.605469 131.496094 64.542969 131.496094 70.628906 "/>
<path style=" stroke:none;fill-rule:nonzero;fill:rgb(0%,26.27451%,30.980392%);fill-opacity:1;" d="M 37.289063 16.238281 C 37.289063 22.328125 32.355469 27.261719 26.265625 27.261719 C 20.175781 27.261719 15.242188 22.328125 15.242188 16.238281 C 15.242188 10.152344 20.175781 5.214844 26.265625 5.214844 C 32.355469 5.214844 37.289063 10.152344 37.289063 16.238281 "/>
<path style=" stroke:none;fill-rule:nonzero;fill:rgb(0%,26.27451%,30.980392%);fill-opacity:1;" d="M 37.289063 125.019531 C 37.289063 131.109375 32.355469 136.046875 26.265625 136.046875 C 20.175781 136.046875 15.242188 131.109375 15.242188 125.019531 C 15.242188 118.933594 20.175781 113.996094 26.265625 113.996094 C 32.355469 113.996094 37.289063 118.933594 37.289063 125.019531 "/>
<path style=" stroke:none;fill-rule:evenodd;fill:rgb(100%,100%,100%);fill-opacity:1;" d="M 123.082031 74.425781 L 122.214844 72.207031 L 118.753906 72.207031 L 117.882813 74.425781 L 116.8125 74.425781 L 119.914063 66.832031 L 121.082031 66.832031 L 124.132813 74.425781 Z M 120.933594 68.898438 L 120.914063 68.855469 L 120.898438 68.8125 L 120.878906 68.765625 L 120.832031 68.636719 L 120.8125 68.59375 L 120.796875 68.546875 L 120.734375 68.375 L 120.722656 68.332031 L 120.707031 68.289063 L 120.695313 68.25 L 120.679688 68.210938 L 120.65625 68.132813 L 120.640625 68.097656 L 120.605469 67.992188 L 120.597656 67.957031 L 120.574219 67.894531 L 120.566406 67.863281 L 120.554688 67.835938 L 120.546875 67.808594 L 120.535156 67.785156 L 120.527344 67.757813 L 120.519531 67.734375 L 120.515625 67.714844 L 120.507813 67.695313 L 120.503906 67.675781 L 120.496094 67.644531 L 120.492188 67.632813 L 120.488281 67.625 L 120.484375 67.613281 L 120.484375 67.609375 L 120.480469 67.613281 L 120.480469 67.625 L 120.476563 67.632813 L 120.472656 67.644531 L 120.46875 67.660156 L 120.460938 67.675781 L 120.457031 67.695313 L 120.449219 67.714844 L 120.445313 67.734375 L 120.4375 67.757813 L 120.421875 67.8125 L 120.410156 67.839844 L 120.402344 67.867188 L 120.390625 67.898438 L 120.382813 67.929688 L 120.371094 67.960938 L 120.347656 68.03125 L 120.332031 68.066406 L 120.320313 68.105469 L 120.308594 68.140625 L 120.296875 68.179688 L 120.28125 68.21875 L 120.269531 68.257813 L 120.238281 68.34375 L 120.226563 68.382813 L 120.210938 68.425781 L 120.195313 68.472656 L 120.148438 68.601563 L 120.132813 68.648438 L 120.039063 68.90625 L 119.066406 71.402344 L 121.90625 71.402344 Z M 120.933594 68.898438 "/>
<path style=" stroke:none;fill-rule:evenodd;fill:rgb(100%,100%,100%);fill-opacity:1;" d="M 29.367188 17.898438 L 29.363281 18.011719 L 29.355469 18.121094 L 29.34375 18.226563 L 29.328125 18.332031 L 29.308594 18.433594 L 29.285156 18.527344 L 29.253906 18.621094 L 29.183594 18.800781 L 29.140625 18.882813 L 29.09375 18.960938 L 29.042969 19.039063 L 28.988281 19.113281 L 28.933594 19.183594 L 28.875 19.25 L 28.8125 19.316406 L 28.746094 19.378906 L 28.675781 19.4375 L 28.605469 19.492188 L 28.53125 19.546875 L 28.453125 19.59375 L 28.289063 19.6875 L 28.117188 19.765625 L 28.027344 19.800781 L 27.933594 19.835938 L 27.839844 19.867188 L 27.742188 19.894531 L 27.539063 19.941406 L 27.4375 19.960938 L 27.332031 19.980469 L 27.226563 19.992188 L 27.121094 20.007813 L 27.011719 20.019531 L 26.90625 20.027344 L 26.796875 20.03125 L 26.683594 20.035156 L 23.488281 20.035156 L 23.488281 12.441406 L 26.375 12.441406 L 26.496094 12.445313 L 26.617188 12.453125 L 26.734375 12.457031 L 26.847656 12.46875 L 26.957031 12.480469 L 27.066406 12.496094 L 27.277344 12.527344 L 27.375 12.550781 L 27.472656 12.570313 L 27.570313 12.59375 L 27.660156 12.621094 L 27.75 12.652344 L 27.835938 12.683594 L 27.917969 12.71875 L 27.996094 12.753906 L 28.074219 12.792969 L 28.148438 12.835938 L 28.21875 12.878906 L 28.285156 12.925781 L 28.347656 12.972656 L 28.410156 13.023438 L 28.464844 13.078125 L 28.519531 13.136719 L 28.570313 13.195313 L 28.617188 13.253906 L 28.664063 13.320313 L 28.703125 13.386719 L 28.738281 13.453125 L 28.773438 13.523438 L 28.804688 13.597656 L 28.832031 13.675781 L 28.855469 13.753906 L 28.878906 13.835938 L 28.894531 13.917969 L 28.90625 14.007813 L 28.921875 14.1875 L 28.921875 14.347656 L 28.910156 14.535156 L 28.902344 14.59375 L 28.878906 14.710938 L 28.847656 14.828125 L 28.832031 14.882813 L 28.792969 14.992188 L 28.746094 15.101563 L 28.722656 15.152344 L 28.691406 15.203125 L 28.664063 15.253906 L 28.632813 15.300781 L 28.527344 15.441406 L 28.488281 15.484375 L 28.40625 15.566406 L 28.265625 15.683594 L 28.164063 15.753906 L 28.109375 15.789063 L 28.054688 15.820313 L 27.996094 15.851563 L 27.878906 15.90625 L 27.753906 15.953125 L 27.6875 15.976563 L 27.621094 15.996094 L 27.550781 16.015625 L 27.480469 16.03125 L 27.570313 16.042969 L 27.828125 16.089844 L 27.910156 16.109375 L 28.066406 16.15625 L 28.144531 16.183594 L 28.214844 16.210938 L 28.289063 16.242188 L 28.355469 16.273438 L 28.425781 16.308594 L 28.488281 16.34375 L 28.554688 16.378906 L 28.613281 16.417969 L 28.671875 16.460938 L 28.78125 16.546875 L 28.832031 16.59375 L 28.878906 16.640625 L 28.925781 16.691406 L 29.011719 16.792969 L 29.089844 16.902344 L 29.125 16.960938 L 29.15625 17.019531 L 29.1875 17.082031 L 29.242188 17.207031 L 29.265625 17.269531 L 29.304688 17.402344 L 29.320313 17.46875 L 29.335938 17.539063 L 29.34375 17.609375 L 29.355469 17.679688 L 29.359375 17.75 Z M 27.886719 14.410156 L 27.882813 14.289063 L 27.871094 14.175781 L 27.851563 14.070313 L 27.820313 13.972656 L 27.785156 13.882813 L 27.738281 13.796875 L 27.683594 13.71875 L 27.621094 13.648438 L 27.546875 13.585938 L 27.46875 13.53125 L 27.378906 13.480469 L 27.285156 13.433594 L 27.183594 13.394531 L 27.070313 13.363281 L 26.953125 13.332031 L 26.828125 13.308594 L 26.695313 13.289063 L 26.554688 13.277344 L 26.40625 13.269531 L 26.25 13.265625 L 24.519531 13.265625 L 24.519531 15.671875 L 26.25 15.671875 L 26.339844 15.667969 L 26.425781 15.667969 L 26.507813 15.664063 L 26.589844 15.65625 L 26.667969 15.648438 L 26.742188 15.640625 L 26.816406 15.628906 L 26.882813 15.613281 L 26.953125 15.601563 L 27.015625 15.585938 L 27.078125 15.566406 L 27.136719 15.542969 L 27.191406 15.523438 L 27.246094 15.5 L 27.296875 15.476563 L 27.347656 15.449219 L 27.441406 15.394531 L 27.480469 15.363281 L 27.523438 15.332031 L 27.628906 15.226563 L 27.660156 15.1875 L 27.6875 15.148438 L 27.714844 15.105469 L 27.742188 15.066406 L 27.761719 15.023438 L 27.785156 14.976563 L 27.800781 14.933594 L 27.820313 14.886719 L 27.832031 14.835938 L 27.847656 14.789063 L 27.855469 14.738281 L 27.867188 14.683594 L 27.875 14.632813 L 27.878906 14.578125 L 27.886719 14.523438 Z M 28.324219 17.816406 L 28.324219 17.746094 L 28.320313 17.675781 L 28.304688 17.542969 L 28.292969 17.480469 L 28.277344 17.421875 L 28.257813 17.363281 L 28.238281 17.308594 L 28.214844 17.253906 L 28.191406 17.203125 L 28.164063 17.152344 L 28.101563 17.058594 L 28.066406 17.011719 L 28.03125 16.972656 L 27.992188 16.929688 L 27.949219 16.890625 L 27.90625 16.855469 L 27.8125 16.785156 L 27.761719 16.753906 L 27.710938 16.726563 L 27.65625 16.695313 L 27.597656 16.671875 L 27.539063 16.644531 L 27.476563 16.625 L 27.414063 16.601563 L 27.351563 16.582031 L 27.285156 16.566406 L 27.144531 16.535156 L 27.074219 16.523438 L 26.925781 16.5 L 26.769531 16.484375 L 26.523438 16.472656 L 24.519531 16.472656 L 24.519531 19.210938 L 26.675781 19.210938 L 26.824219 19.203125 L 26.898438 19.195313 L 27.039063 19.179688 L 27.105469 19.171875 L 27.175781 19.160156 L 27.242188 19.148438 L 27.308594 19.132813 L 27.433594 19.101563 L 27.492188 19.078125 L 27.550781 19.058594 L 27.609375 19.035156 L 27.660156 19.007813 L 27.714844 18.980469 L 27.765625 18.953125 L 27.8125 18.921875 L 27.90625 18.851563 L 27.949219 18.8125 L 27.988281 18.773438 L 28.066406 18.6875 L 28.101563 18.640625 L 28.132813 18.59375 L 28.164063 18.542969 L 28.191406 18.488281 L 28.214844 18.433594 L 28.238281 18.375 L 28.257813 18.316406 L 28.277344 18.253906 L 28.292969 18.1875 L 28.304688 18.117188 L 28.3125 18.046875 L 28.320313 17.972656 L 28.324219 17.894531 Z M 28.324219 17.816406 "/>
<path style=" stroke:none;fill-rule:evenodd;fill:rgb(100%,100%,100%);fill-opacity:1;" d="M 26.550781 121.953125 L 26.421875 121.953125 L 26.296875 121.960938 L 26.054688 121.984375 L 25.9375 122.003906 L 25.824219 122.027344 L 25.605469 122.089844 L 25.503906 122.125 L 25.402344 122.167969 L 25.304688 122.210938 L 25.207031 122.261719 L 25.117188 122.3125 L 25.027344 122.367188 L 24.863281 122.492188 L 24.78125 122.558594 L 24.707031 122.628906 L 24.632813 122.703125 L 24.566406 122.78125 L 24.5 122.863281 L 24.4375 122.949219 L 24.378906 123.035156 L 24.324219 123.125 L 24.269531 123.222656 L 24.222656 123.316406 L 24.175781 123.417969 L 24.132813 123.523438 L 24.09375 123.628906 L 24.058594 123.742188 L 23.996094 123.96875 L 23.96875 124.089844 L 23.929688 124.332031 L 23.914063 124.457031 L 23.902344 124.585938 L 23.886719 124.851563 L 23.886719 125.121094 L 23.902344 125.386719 L 23.914063 125.515625 L 23.953125 125.765625 L 23.976563 125.890625 L 24.003906 126.007813 L 24.035156 126.125 L 24.070313 126.242188 L 24.109375 126.355469 L 24.195313 126.566406 L 24.296875 126.769531 L 24.351563 126.863281 L 24.410156 126.957031 L 24.472656 127.046875 L 24.535156 127.132813 L 24.601563 127.21875 L 24.75 127.375 L 24.90625 127.515625 L 24.992188 127.582031 L 25.078125 127.644531 L 25.167969 127.703125 L 25.261719 127.757813 L 25.355469 127.808594 L 25.453125 127.855469 L 25.558594 127.898438 L 25.769531 127.96875 L 25.878906 128 L 25.992188 128.023438 L 26.105469 128.042969 L 26.226563 128.058594 L 26.34375 128.070313 L 26.46875 128.078125 L 26.59375 128.082031 L 26.851563 128.070313 L 26.933594 128.0625 L 27.015625 128.050781 L 27.09375 128.039063 L 27.171875 128.023438 L 27.246094 128.007813 L 27.394531 127.96875 L 27.46875 127.941406 L 27.609375 127.886719 L 27.675781 127.859375 L 27.742188 127.824219 L 27.808594 127.792969 L 27.871094 127.757813 L 27.933594 127.71875 L 27.992188 127.679688 L 28.054688 127.636719 L 28.113281 127.59375 L 28.167969 127.550781 L 28.226563 127.503906 L 28.28125 127.457031 L 28.332031 127.410156 L 28.386719 127.359375 L 28.4375 127.308594 L 28.484375 127.253906 L 28.535156 127.199219 L 28.582031 127.140625 L 28.625 127.082031 L 28.671875 127.023438 L 28.800781 126.835938 L 28.839844 126.773438 L 28.878906 126.707031 L 28.917969 126.636719 L 28.953125 126.570313 L 28.992188 126.5 L 29.832031 126.921875 L 29.789063 127.007813 L 29.746094 127.089844 L 29.652344 127.253906 L 29.550781 127.410156 L 29.441406 127.566406 L 29.324219 127.714844 L 29.199219 127.855469 L 29.132813 127.925781 L 29.066406 127.992188 L 28.925781 128.117188 L 28.847656 128.179688 L 28.773438 128.238281 L 28.695313 128.292969 L 28.613281 128.351563 L 28.53125 128.402344 L 28.445313 128.453125 L 28.273438 128.546875 L 28.085938 128.632813 L 27.992188 128.671875 L 27.894531 128.707031 L 27.691406 128.777344 L 27.589844 128.804688 L 27.480469 128.828125 L 27.375 128.851563 L 27.148438 128.890625 L 26.914063 128.914063 L 26.792969 128.921875 L 26.667969 128.925781 L 26.542969 128.925781 L 26.363281 128.921875 L 26.183594 128.914063 L 26.011719 128.898438 L 25.84375 128.878906 L 25.679688 128.855469 L 25.519531 128.820313 L 25.363281 128.785156 L 25.214844 128.742188 L 25.066406 128.691406 L 24.925781 128.636719 L 24.789063 128.574219 L 24.660156 128.507813 L 24.53125 128.4375 L 24.410156 128.363281 L 24.292969 128.28125 L 24.179688 128.199219 L 24.070313 128.109375 L 23.964844 128.015625 L 23.863281 127.917969 L 23.765625 127.816406 L 23.675781 127.707031 L 23.589844 127.597656 L 23.433594 127.363281 L 23.292969 127.113281 L 23.230469 126.980469 L 23.175781 126.847656 L 23.121094 126.707031 L 23.070313 126.566406 L 23.027344 126.417969 L 22.988281 126.269531 L 22.953125 126.121094 L 22.921875 125.964844 L 22.898438 125.808594 L 22.859375 125.488281 L 22.847656 125.324219 L 22.84375 125.15625 L 22.839844 124.984375 L 22.84375 124.808594 L 22.851563 124.636719 L 22.863281 124.46875 L 22.878906 124.300781 L 22.925781 123.980469 L 22.960938 123.824219 L 22.996094 123.671875 L 23.035156 123.523438 L 23.082031 123.378906 L 23.132813 123.238281 L 23.191406 123.101563 L 23.25 122.96875 L 23.316406 122.839844 L 23.386719 122.714844 L 23.460938 122.597656 L 23.539063 122.480469 L 23.621094 122.371094 L 23.707031 122.265625 L 23.800781 122.160156 L 23.898438 122.0625 L 24 121.96875 L 24.105469 121.878906 L 24.214844 121.792969 L 24.328125 121.714844 L 24.445313 121.640625 L 24.570313 121.570313 L 24.695313 121.503906 L 24.828125 121.441406 L 24.964844 121.386719 L 25.105469 121.332031 L 25.246094 121.285156 L 25.394531 121.246094 L 25.546875 121.210938 L 25.703125 121.179688 L 25.863281 121.15625 L 26.023438 121.136719 L 26.191406 121.121094 L 26.363281 121.113281 L 26.539063 121.109375 L 26.777344 121.113281 L 27.007813 121.128906 L 27.230469 121.152344 L 27.445313 121.1875 L 27.652344 121.230469 L 27.851563 121.28125 L 28.039063 121.34375 L 28.222656 121.414063 L 28.398438 121.496094 L 28.566406 121.585938 L 28.722656 121.683594 L 28.875 121.792969 L 29.015625 121.910156 L 29.148438 122.039063 L 29.269531 122.171875 L 29.386719 122.320313 L 29.492188 122.472656 L 29.589844 122.636719 L 29.679688 122.808594 L 29.761719 122.992188 L 28.785156 123.316406 L 28.738281 123.207031 L 28.714844 123.15625 L 28.6875 123.105469 L 28.660156 123.050781 L 28.597656 122.949219 L 28.566406 122.902344 L 28.53125 122.851563 L 28.496094 122.804688 L 28.457031 122.753906 L 28.417969 122.707031 L 28.332031 122.613281 L 28.289063 122.570313 L 28.242188 122.527344 L 28.191406 122.484375 L 28.144531 122.445313 L 27.980469 122.328125 L 27.921875 122.292969 L 27.863281 122.261719 L 27.800781 122.226563 L 27.738281 122.195313 L 27.605469 122.140625 L 27.535156 122.113281 L 27.464844 122.089844 L 27.316406 122.042969 L 27.238281 122.023438 L 27.160156 122.007813 L 27.078125 121.992188 L 26.996094 121.980469 L 26.910156 121.96875 L 26.824219 121.960938 L 26.644531 121.953125 Z M 26.550781 121.953125 "/>
</g>
</svg>
