<?xml version="1.0" encoding="UTF-8"?>
<svg xmlns="http://www.w3.org/2000/svg" xmlns:xlink="http://www.w3.org/1999/xlink" width="180pt" height="180pt" viewBox="0 0 180 180" version="1.1">
<defs>
<clipPath id="clip1">
  <path d="M 0 1.183594 L 180 1.183594 L 180 178.820313 L 0 178.820313 Z M 0 1.183594 "/>
</clipPath>
</defs>
<g id="surface14">
<rect x="0" y="0" width="180" height="180" style="fill:rgb(100%,100%,100%);fill-opacity:1;stroke:none;"/>
<g clip-path="url(#clip1)" clip-rule="nonzero">
<path style=" stroke:none;fill-rule:nonzero;fill:rgb(100%,100%,100%);fill-opacity:1;" d="M 0 178.816406 L 180 178.816406 L 180 1.179688 L 0 1.179688 Z M 0 178.816406 "/>
</g>
<path style="fill:none;stroke-width:2.133957;stroke-linecap:butt;stroke-linejoin:round;stroke:rgb(0%,0%,0%);stroke-opacity:1;stroke-miterlimit:1;" d="M 115.941406 18.949219 L 116.324219 19.269531 L 116.703125 19.589844 L 117.082031 19.90625 L 117.464844 20.226563 L 117.84375 20.546875 L 118.222656 20.863281 L 118.605469 21.183594 L 118.984375 21.503906 L 119.363281 21.820313 L 119.746094 22.140625 L 120.125 22.460938 L 120.507813 22.78125 L 120.886719 23.097656 L 121.265625 23.417969 L 121.648438 23.738281 L 122.027344 24.054688 L 122.40625 24.375 L 122.789063 24.695313 L 123.167969 25.011719 L 123.546875 25.332031 L 123.929688 25.652344 L 124.308594 25.96875 L 124.6875 26.289063 L 125.070313 26.609375 L 125.449219 26.925781 L 125.828125 27.246094 L 126.210938 27.566406 L 126.589844 27.886719 L 126.972656 28.203125 L 127.730469 28.84375 L 128.113281 29.160156 L 128.871094 29.800781 L 129.253906 30.117188 L 130.011719 30.757813 L 130.394531 31.074219 L 131.152344 31.714844 L 131.535156 32.035156 L 131.914063 32.351563 L 132.292969 32.671875 L 132.675781 32.992188 L 133.054688 33.308594 L 133.4375 33.628906 L 133.816406 33.949219 L 134.195313 34.265625 L 134.578125 34.585938 L 134.957031 34.90625 L 135.335938 35.222656 L 135.71875 35.542969 L 136.097656 35.863281 L 136.476563 36.179688 L 136.859375 36.5 L 137.617188 37.140625 L 138 37.457031 L 138.757813 38.097656 L 139.140625 38.414063 L 139.898438 39.054688 L 140.28125 39.371094 L 140.660156 39.691406 L 141.042969 40.011719 L 141.421875 40.328125 L 141.800781 40.648438 L 142.183594 40.96875 L 142.5625 41.285156 L 142.941406 41.605469 L 143.324219 41.925781 L 143.703125 42.246094 L 144.082031 42.5625 L 144.464844 42.882813 L 144.84375 43.203125 L 145.222656 43.519531 L 145.605469 43.839844 L 145.984375 44.160156 L 146.363281 44.476563 L 146.746094 44.796875 L 147.125 45.117188 L 147.507813 45.433594 L 148.265625 46.074219 L 148.648438 46.390625 L 149.40625 47.03125 L 149.789063 47.351563 L 150.167969 47.667969 L 150.546875 47.988281 L 150.929688 48.308594 L 151.308594 48.625 L 151.6875 48.945313 L 152.070313 49.265625 L 152.449219 49.582031 L 152.828125 49.902344 L 153.210938 50.222656 L 153.589844 50.539063 "/>
<path style="fill:none;stroke-width:2.133957;stroke-linecap:butt;stroke-linejoin:round;stroke:rgb(0%,0%,0%);stroke-opacity:1;stroke-miterlimit:1;" d="M 162.125 98.941406 L 20.613281 98.941406 "/>
<path style="fill:none;stroke-width:2.133957;stroke-linecap:butt;stroke-linejoin:round;stroke:rgb(0%,0%,0%);stroke-opacity:1;stroke-miterlimit:1;" d="M 115.941406 18.949219 L 115.066406 19.269531 L 114.1875 19.589844 L 113.3125 19.90625 L 112.4375 20.226563 L 111.558594 20.546875 L 110.683594 20.863281 L 109.804688 21.183594 L 108.929688 21.503906 L 108.050781 21.820313 L 106.300781 22.460938 L 105.421875 22.78125 L 104.546875 23.097656 L 103.667969 23.417969 L 102.792969 23.738281 L 101.914063 24.054688 L 101.039063 24.375 L 100.160156 24.695313 L 99.285156 25.011719 L 98.410156 25.332031 L 97.53125 25.652344 L 96.65625 25.96875 L 95.777344 26.289063 L 94.902344 26.609375 L 94.023438 26.925781 L 92.273438 27.566406 L 91.394531 27.886719 L 90.519531 28.203125 L 89.640625 28.523438 L 88.765625 28.84375 L 87.886719 29.160156 L 86.136719 29.800781 L 85.257813 30.117188 L 84.382813 30.4375 L 83.503906 30.757813 L 82.628906 31.074219 L 81.75 31.394531 L 80.875 31.714844 L 79.996094 32.035156 L 79.121094 32.351563 L 78.246094 32.671875 L 77.367188 32.992188 L 76.492188 33.308594 L 75.613281 33.628906 L 74.738281 33.949219 L 73.859375 34.265625 L 72.109375 34.90625 L 71.230469 35.222656 L 70.355469 35.542969 L 69.476563 35.863281 L 68.601563 36.179688 L 67.722656 36.5 L 65.972656 37.140625 L 65.09375 37.457031 L 64.21875 37.777344 L 63.339844 38.097656 L 62.464844 38.414063 L 61.585938 38.734375 L 60.710938 39.054688 L 59.832031 39.371094 L 58.082031 40.011719 L 57.203125 40.328125 L 56.328125 40.648438 L 55.449219 40.96875 L 54.574219 41.285156 L 53.695313 41.605469 L 51.945313 42.246094 L 51.066406 42.5625 L 50.191406 42.882813 L 49.3125 43.203125 L 48.4375 43.519531 L 47.558594 43.839844 L 46.683594 44.160156 L 45.804688 44.476563 L 44.054688 45.117188 L 43.175781 45.433594 L 42.300781 45.753906 L 41.421875 46.074219 L 40.546875 46.390625 L 39.667969 46.710938 L 37.917969 47.351563 L 37.039063 47.667969 L 36.164063 47.988281 L 35.285156 48.308594 L 34.410156 48.625 L 33.53125 48.945313 L 32.65625 49.265625 L 31.78125 49.582031 L 30.902344 49.902344 L 30.027344 50.222656 L 29.148438 50.539063 "/>
<path style="fill:none;stroke-width:2.133957;stroke-linecap:butt;stroke-linejoin:round;stroke:rgb(0%,0%,0%);stroke-opacity:1;stroke-miterlimit:1;" d="M 153.589844 50.539063 L 29.148438 50.539063 "/>
<path style="fill:none;stroke-width:2.133957;stroke-linecap:butt;stroke-linejoin:round;stroke:rgb(0%,0%,0%);stroke-opacity:1;stroke-miterlimit:1;" d="M 162.125 98.941406 L 160.78125 98.449219 L 156.75 96.984375 L 155.410156 96.496094 L 154.066406 96.007813 L 152.722656 95.515625 L 147.347656 93.5625 L 146.007813 93.074219 L 144.664063 92.585938 L 143.320313 92.09375 L 137.945313 90.140625 L 136.605469 89.652344 L 135.261719 89.160156 L 128.542969 86.71875 L 127.203125 86.230469 L 125.859375 85.738281 L 120.484375 83.785156 L 119.144531 83.296875 L 117.800781 82.808594 L 116.457031 82.316406 L 111.082031 80.363281 L 109.742188 79.875 L 108.398438 79.382813 L 101.679688 76.941406 L 100.339844 76.453125 L 98.996094 75.960938 L 92.277344 73.519531 L 90.9375 73.027344 L 82.875 70.097656 L 81.535156 69.605469 L 74.816406 67.164063 L 73.472656 66.671875 L 72.132813 66.183594 L 65.414063 63.742188 L 64.070313 63.25 L 62.730469 62.761719 L 57.355469 60.808594 L 56.011719 60.316406 L 54.667969 59.828125 L 53.328125 59.339844 L 47.953125 57.386719 L 46.609375 56.894531 L 45.265625 56.40625 L 43.925781 55.917969 L 39.894531 54.453125 L 38.550781 53.960938 L 35.863281 52.984375 L 34.523438 52.496094 L 30.492188 51.03125 L 29.148438 50.539063 "/>
<path style="fill:none;stroke-width:2.133957;stroke-linecap:butt;stroke-linejoin:round;stroke:rgb(0%,0%,0%);stroke-opacity:1;stroke-miterlimit:1;" d="M 115.941406 18.949219 L 66.796875 18.949219 "/>
<path style="fill:none;stroke-width:2.133957;stroke-linecap:butt;stroke-linejoin:round;stroke:rgb(0%,0%,0%);stroke-opacity:1;stroke-miterlimit:1;" d="M 153.589844 50.539063 L 152.714844 50.222656 L 151.835938 49.902344 L 150.960938 49.582031 L 150.082031 49.265625 L 148.332031 48.625 L 147.453125 48.308594 L 146.578125 47.988281 L 145.699219 47.667969 L 144.824219 47.351563 L 143.945313 47.03125 L 143.070313 46.710938 L 142.191406 46.390625 L 141.316406 46.074219 L 140.441406 45.753906 L 139.5625 45.433594 L 138.6875 45.117188 L 137.808594 44.796875 L 136.933594 44.476563 L 136.054688 44.160156 L 134.304688 43.519531 L 133.425781 43.203125 L 132.550781 42.882813 L 131.671875 42.5625 L 130.796875 42.246094 L 129.917969 41.925781 L 128.167969 41.285156 L 127.289063 40.96875 L 126.414063 40.648438 L 125.535156 40.328125 L 124.660156 40.011719 L 123.78125 39.691406 L 122.90625 39.371094 L 122.027344 39.054688 L 120.277344 38.414063 L 119.398438 38.097656 L 118.523438 37.777344 L 117.644531 37.457031 L 116.769531 37.140625 L 115.890625 36.820313 L 114.140625 36.179688 L 113.261719 35.863281 L 112.386719 35.542969 L 111.507813 35.222656 L 110.632813 34.90625 L 109.753906 34.585938 L 108.878906 34.265625 L 108.003906 33.949219 L 107.125 33.628906 L 106.25 33.308594 L 105.371094 32.992188 L 104.496094 32.671875 L 103.617188 32.351563 L 102.742188 32.035156 L 101.863281 31.714844 L 100.113281 31.074219 L 99.234375 30.757813 L 98.359375 30.4375 L 97.480469 30.117188 L 96.605469 29.800781 L 95.726563 29.480469 L 94.851563 29.160156 L 93.976563 28.84375 L 93.097656 28.523438 L 92.222656 28.203125 L 91.34375 27.886719 L 90.46875 27.566406 L 89.589844 27.246094 L 88.714844 26.925781 L 87.835938 26.609375 L 86.085938 25.96875 L 85.207031 25.652344 L 84.332031 25.332031 L 83.453125 25.011719 L 82.578125 24.695313 L 81.699219 24.375 L 80.824219 24.054688 L 79.949219 23.738281 L 79.070313 23.417969 L 78.195313 23.097656 L 77.316406 22.78125 L 76.441406 22.460938 L 75.5625 22.140625 L 74.6875 21.820313 L 73.8125 21.503906 L 72.933594 21.183594 L 72.058594 20.863281 L 71.179688 20.546875 L 70.304688 20.226563 L 69.425781 19.90625 L 68.550781 19.589844 L 67.671875 19.269531 L 66.796875 18.949219 "/>
<path style="fill:none;stroke-width:2.133957;stroke-linecap:butt;stroke-linejoin:round;stroke:rgb(0%,0%,0%);stroke-opacity:1;stroke-miterlimit:1;" d="M 162.125 98.941406 L 161.160156 98.132813 L 160.199219 97.324219 L 159.234375 96.515625 L 158.273438 95.707031 L 157.308594 94.898438 L 156.347656 94.09375 L 155.382813 93.285156 L 154.421875 92.476563 L 153.457031 91.667969 L 152.496094 90.859375 L 151.53125 90.050781 L 150.570313 89.242188 L 149.605469 88.4375 L 148.644531 87.628906 L 147.679688 86.820313 L 146.71875 86.011719 L 145.753906 85.203125 L 144.792969 84.394531 L 143.828125 83.589844 L 142.867188 82.78125 L 141.902344 81.972656 L 140.941406 81.164063 L 139.976563 80.355469 L 139.015625 79.546875 L 138.050781 78.742188 L 137.089844 77.933594 L 136.125 77.125 L 135.164063 76.316406 L 134.199219 75.507813 L 133.238281 74.699219 L 132.273438 73.890625 L 131.3125 73.085938 L 130.347656 72.277344 L 129.386719 71.46875 L 128.421875 70.660156 L 127.460938 69.851563 L 126.496094 69.042969 L 125.535156 68.238281 L 124.570313 67.429688 L 123.609375 66.621094 L 122.644531 65.8125 L 121.683594 65.003906 L 120.71875 64.195313 L 119.757813 63.390625 L 118.792969 62.582031 L 117.832031 61.773438 L 116.867188 60.964844 L 115.90625 60.15625 L 114.941406 59.347656 L 113.980469 58.542969 L 113.015625 57.734375 L 112.054688 56.925781 L 111.089844 56.117188 L 110.128906 55.308594 L 109.164063 54.5 L 108.203125 53.691406 L 107.238281 52.886719 L 106.277344 52.078125 L 105.3125 51.269531 L 104.351563 50.460938 L 103.386719 49.652344 L 102.425781 48.84375 L 101.460938 48.039063 L 100.5 47.230469 L 99.535156 46.421875 L 98.574219 45.613281 L 97.609375 44.804688 L 96.648438 43.996094 L 95.683594 43.191406 L 94.722656 42.382813 L 93.757813 41.574219 L 92.796875 40.765625 L 91.832031 39.957031 L 90.871094 39.148438 L 89.90625 38.339844 L 88.945313 37.535156 L 87.980469 36.726563 L 87.019531 35.917969 L 86.054688 35.109375 L 85.09375 34.300781 L 84.128906 33.492188 L 83.167969 32.6875 L 82.203125 31.878906 L 81.242188 31.070313 L 80.277344 30.261719 L 79.316406 29.453125 L 78.351563 28.644531 L 77.390625 27.839844 L 76.425781 27.03125 L 75.464844 26.222656 L 74.5 25.414063 L 73.539063 24.605469 L 72.574219 23.796875 L 71.613281 22.992188 L 70.648438 22.183594 L 69.6875 21.375 L 68.722656 20.566406 L 67.761719 19.757813 L 66.796875 18.949219 "/>
<path style="fill:none;stroke-width:2.133957;stroke-linecap:butt;stroke-linejoin:round;stroke:rgb(0%,0%,0%);stroke-opacity:1;stroke-miterlimit:1;" d="M 115.941406 18.949219 L 116.410156 19.757813 L 116.875 20.566406 L 117.34375 21.375 L 118.273438 22.992188 L 118.742188 23.796875 L 119.207031 24.605469 L 119.675781 25.414063 L 120.140625 26.222656 L 120.609375 27.03125 L 121.074219 27.839844 L 121.539063 28.644531 L 122.007813 29.453125 L 122.472656 30.261719 L 122.941406 31.070313 L 123.871094 32.6875 L 124.339844 33.492188 L 124.804688 34.300781 L 125.273438 35.109375 L 125.738281 35.917969 L 126.207031 36.726563 L 126.671875 37.535156 L 127.136719 38.339844 L 127.605469 39.148438 L 128.070313 39.957031 L 128.539063 40.765625 L 129.003906 41.574219 L 129.472656 42.382813 L 129.9375 43.191406 L 130.402344 43.996094 L 130.871094 44.804688 L 131.335938 45.613281 L 131.804688 46.421875 L 132.734375 48.039063 L 133.203125 48.84375 L 133.667969 49.652344 L 134.136719 50.460938 L 134.601563 51.269531 L 135.070313 52.078125 L 135.535156 52.886719 L 136 53.691406 L 136.46875 54.5 L 136.933594 55.308594 L 137.402344 56.117188 L 138.332031 57.734375 L 138.800781 58.542969 L 139.265625 59.347656 L 139.734375 60.15625 L 140.199219 60.964844 L 140.667969 61.773438 L 141.597656 63.390625 L 142.066406 64.195313 L 142.53125 65.003906 L 143 65.8125 L 143.464844 66.621094 L 143.933594 67.429688 L 144.398438 68.238281 L 144.863281 69.042969 L 145.332031 69.851563 L 145.796875 70.660156 L 146.265625 71.46875 L 147.195313 73.085938 L 147.664063 73.890625 L 148.128906 74.699219 L 148.597656 75.507813 L 149.0625 76.316406 L 149.53125 77.125 L 150.460938 78.742188 L 150.929688 79.546875 L 151.394531 80.355469 L 151.863281 81.164063 L 152.792969 82.78125 L 153.261719 83.589844 L 153.726563 84.394531 L 154.195313 85.203125 L 154.660156 86.011719 L 155.128906 86.820313 L 156.058594 88.4375 L 156.527344 89.242188 L 156.992188 90.050781 L 157.460938 90.859375 L 157.925781 91.667969 L 158.394531 92.476563 L 159.324219 94.09375 L 159.792969 94.898438 L 160.257813 95.707031 L 160.726563 96.515625 L 161.65625 98.132813 L 162.125 98.941406 "/>
<path style="fill:none;stroke-width:2.133957;stroke-linecap:butt;stroke-linejoin:round;stroke:rgb(0%,0%,0%);stroke-opacity:1;stroke-miterlimit:1;" d="M 115.941406 18.949219 L 117.253906 26.378906 L 117.46875 27.617188 L 117.6875 28.851563 L 119 36.28125 L 119.214844 37.519531 L 119.652344 39.996094 L 119.871094 41.230469 L 120.964844 47.421875 L 121.179688 48.660156 L 121.835938 52.375 L 122.054688 53.609375 L 122.710938 57.324219 L 122.925781 58.5625 L 124.019531 64.753906 L 124.238281 65.988281 L 124.457031 67.226563 L 124.671875 68.464844 L 126.203125 77.132813 L 126.417969 78.367188 L 127.949219 87.035156 L 128.164063 88.273438 L 128.382813 89.511719 L 128.601563 90.746094 L 129.914063 98.175781 L 130.128906 99.414063 L 130.566406 101.890625 L 130.785156 103.125 L 131.660156 108.078125 L 131.875 109.316406 L 132.75 114.269531 L 132.96875 115.503906 L 133.40625 117.980469 L 133.621094 119.21875 L 134.714844 125.410156 L 134.933594 126.644531 L 135.152344 127.882813 L 135.367188 129.121094 L 136.898438 137.789063 L 137.113281 139.023438 L 137.550781 141.5 "/>
<path style="fill:none;stroke-width:2.133957;stroke-linecap:butt;stroke-linejoin:round;stroke:rgb(0%,0%,0%);stroke-opacity:1;stroke-miterlimit:1;" d="M 162.125 98.941406 L 161.875 99.371094 L 161.628906 99.800781 L 161.378906 100.230469 L 161.132813 100.660156 L 160.882813 101.089844 L 160.636719 101.519531 L 160.386719 101.949219 L 160.140625 102.378906 L 159.640625 103.238281 L 159.394531 103.667969 L 159.144531 104.097656 L 158.898438 104.527344 L 158.648438 104.957031 L 158.402344 105.386719 L 158.152344 105.816406 L 157.90625 106.25 L 157.65625 106.679688 L 157.410156 107.109375 L 157.160156 107.539063 L 156.914063 107.96875 L 156.414063 108.828125 L 156.167969 109.257813 L 155.917969 109.6875 L 155.671875 110.117188 L 155.421875 110.546875 L 155.175781 110.976563 L 154.925781 111.40625 L 154.679688 111.835938 L 154.429688 112.265625 L 154.183594 112.695313 L 153.933594 113.125 L 153.683594 113.558594 L 153.4375 113.988281 L 153.1875 114.417969 L 152.941406 114.847656 L 152.691406 115.277344 L 152.445313 115.707031 L 152.195313 116.136719 L 151.949219 116.566406 L 151.699219 116.996094 L 151.453125 117.425781 L 150.953125 118.285156 L 150.707031 118.714844 L 150.457031 119.144531 L 150.210938 119.574219 L 149.960938 120.003906 L 149.714844 120.433594 L 149.464844 120.867188 L 149.21875 121.296875 L 148.96875 121.726563 L 148.722656 122.15625 L 148.472656 122.585938 L 148.226563 123.015625 L 147.726563 123.875 L 147.480469 124.304688 L 147.230469 124.734375 L 146.984375 125.164063 L 146.734375 125.59375 L 146.488281 126.023438 L 146.238281 126.453125 L 145.992188 126.882813 L 145.742188 127.3125 L 145.496094 127.742188 L 145.246094 128.171875 L 144.996094 128.605469 L 144.75 129.035156 L 144.5 129.464844 L 144.253906 129.894531 L 144.003906 130.324219 L 143.757813 130.753906 L 143.507813 131.183594 L 143.261719 131.613281 L 143.011719 132.042969 L 142.765625 132.472656 L 142.515625 132.902344 L 142.269531 133.332031 L 141.769531 134.191406 L 141.523438 134.621094 L 141.273438 135.050781 L 141.027344 135.480469 L 140.777344 135.914063 L 140.53125 136.34375 L 140.28125 136.773438 L 140.035156 137.203125 L 139.785156 137.632813 L 139.539063 138.0625 L 139.039063 138.921875 L 138.792969 139.351563 L 138.542969 139.78125 L 138.296875 140.210938 L 138.046875 140.640625 L 137.800781 141.070313 L 137.550781 141.5 "/>
<path style="fill:none;stroke-width:2.133957;stroke-linecap:butt;stroke-linejoin:round;stroke:rgb(0%,0%,0%);stroke-opacity:1;stroke-miterlimit:1;" d="M 115.941406 18.949219 L 115.695313 20.359375 L 115.445313 21.765625 L 115.199219 23.171875 L 114.949219 24.582031 L 114.703125 25.988281 L 114.453125 27.394531 L 114.207031 28.804688 L 113.957031 30.210938 L 113.707031 31.621094 L 113.460938 33.027344 L 113.210938 34.433594 L 112.964844 35.84375 L 112.714844 37.25 L 112.46875 38.65625 L 112.21875 40.066406 L 111.972656 41.472656 L 111.722656 42.878906 L 111.476563 44.289063 L 111.226563 45.695313 L 110.976563 47.105469 L 110.730469 48.511719 L 110.480469 49.917969 L 110.234375 51.328125 L 109.984375 52.734375 L 109.738281 54.140625 L 109.488281 55.550781 L 109.242188 56.957031 L 108.992188 58.363281 L 108.746094 59.773438 L 108.496094 61.179688 L 108.25 62.589844 L 107.75 65.402344 L 107.503906 66.8125 L 107.253906 68.21875 L 107.007813 69.625 L 106.757813 71.035156 L 106.511719 72.441406 L 106.261719 73.847656 L 106.015625 75.257813 L 105.765625 76.664063 L 105.519531 78.074219 L 105.019531 80.886719 L 104.773438 82.296875 L 104.523438 83.703125 L 104.277344 85.109375 L 104.027344 86.519531 L 103.78125 87.925781 L 103.53125 89.332031 L 103.285156 90.742188 L 103.035156 92.148438 L 102.789063 93.558594 L 102.539063 94.964844 L 102.292969 96.371094 L 102.042969 97.78125 L 101.792969 99.1875 L 101.546875 100.59375 L 101.296875 102.003906 L 101.050781 103.410156 L 100.800781 104.820313 L 100.554688 106.226563 L 100.304688 107.632813 L 100.058594 109.042969 L 99.808594 110.449219 L 99.5625 111.855469 L 99.3125 113.265625 L 99.0625 114.671875 L 98.816406 116.078125 L 98.566406 117.488281 L 98.320313 118.894531 L 98.070313 120.304688 L 97.824219 121.710938 L 97.574219 123.117188 L 97.328125 124.527344 L 97.078125 125.933594 L 96.832031 127.339844 L 96.582031 128.75 L 96.335938 130.15625 L 96.085938 131.5625 L 95.835938 132.972656 L 95.589844 134.378906 L 95.339844 135.789063 L 95.09375 137.195313 L 94.84375 138.601563 L 94.597656 140.011719 L 94.347656 141.417969 L 94.101563 142.824219 L 93.851563 144.234375 L 93.605469 145.640625 L 93.355469 147.046875 L 93.105469 148.457031 L 92.859375 149.863281 L 92.609375 151.273438 L 92.363281 152.679688 L 92.113281 154.085938 L 91.867188 155.496094 L 91.617188 156.902344 L 91.371094 158.308594 "/>
<path style="fill:none;stroke-width:2.133957;stroke-linecap:butt;stroke-linejoin:round;stroke:rgb(0%,0%,0%);stroke-opacity:1;stroke-miterlimit:1;" d="M 162.125 98.941406 L 161.410156 99.539063 L 160.695313 100.140625 L 159.980469 100.738281 L 159.265625 101.339844 L 158.550781 101.9375 L 157.835938 102.539063 L 157.121094 103.136719 L 156.40625 103.738281 L 155.691406 104.335938 L 154.976563 104.9375 L 154.261719 105.535156 L 153.546875 106.136719 L 152.832031 106.734375 L 152.117188 107.335938 L 151.402344 107.933594 L 150.6875 108.535156 L 149.976563 109.132813 L 149.261719 109.734375 L 148.546875 110.332031 L 147.117188 111.535156 L 146.402344 112.132813 L 145.6875 112.734375 L 144.972656 113.332031 L 144.257813 113.933594 L 143.542969 114.53125 L 142.828125 115.132813 L 142.113281 115.730469 L 141.398438 116.332031 L 140.683594 116.929688 L 139.96875 117.53125 L 139.253906 118.128906 L 138.539063 118.730469 L 137.824219 119.328125 L 137.109375 119.929688 L 136.394531 120.527344 L 135.679688 121.128906 L 134.964844 121.726563 L 134.25 122.328125 L 133.535156 122.925781 L 132.105469 124.128906 L 131.394531 124.726563 L 130.679688 125.328125 L 129.964844 125.925781 L 129.25 126.527344 L 128.535156 127.125 L 127.820313 127.726563 L 127.105469 128.324219 L 126.390625 128.925781 L 125.675781 129.523438 L 124.960938 130.125 L 124.246094 130.722656 L 123.53125 131.324219 L 122.816406 131.921875 L 122.101563 132.523438 L 121.386719 133.121094 L 120.671875 133.722656 L 119.957031 134.320313 L 119.242188 134.921875 L 118.527344 135.519531 L 117.097656 136.722656 L 116.382813 137.320313 L 115.667969 137.921875 L 114.953125 138.519531 L 114.238281 139.121094 L 113.523438 139.71875 L 112.8125 140.320313 L 112.097656 140.917969 L 111.382813 141.519531 L 110.667969 142.117188 L 109.953125 142.71875 L 109.238281 143.316406 L 108.523438 143.917969 L 107.808594 144.515625 L 107.09375 145.117188 L 106.378906 145.714844 L 105.664063 146.316406 L 104.949219 146.914063 L 104.234375 147.515625 L 103.519531 148.113281 L 102.804688 148.714844 L 102.089844 149.3125 L 100.660156 150.515625 L 99.945313 151.113281 L 99.230469 151.714844 L 98.515625 152.3125 L 97.800781 152.914063 L 97.085938 153.511719 L 96.371094 154.113281 L 95.65625 154.710938 L 94.941406 155.3125 L 94.230469 155.910156 L 93.515625 156.511719 L 92.800781 157.109375 L 92.085938 157.710938 L 91.371094 158.308594 "/>
<path style="fill:none;stroke-width:2.133957;stroke-linecap:butt;stroke-linejoin:round;stroke:rgb(0%,0%,0%);stroke-opacity:1;stroke-miterlimit:1;" d="M 162.125 98.941406 L 160.941406 99.371094 L 158.582031 100.230469 L 157.398438 100.660156 L 155.039063 101.519531 L 153.855469 101.949219 L 152.675781 102.378906 L 151.492188 102.808594 L 149.132813 103.667969 L 147.949219 104.097656 L 145.589844 104.957031 L 144.40625 105.386719 L 143.226563 105.816406 L 142.042969 106.25 L 139.683594 107.109375 L 138.5 107.539063 L 137.320313 107.96875 L 136.136719 108.398438 L 133.777344 109.257813 L 132.59375 109.6875 L 130.234375 110.546875 L 129.050781 110.976563 L 127.871094 111.40625 L 126.6875 111.835938 L 124.328125 112.695313 L 123.144531 113.125 L 121.964844 113.558594 L 120.785156 113.988281 L 119.601563 114.417969 L 118.421875 114.847656 L 117.238281 115.277344 L 114.878906 116.136719 L 113.695313 116.566406 L 112.515625 116.996094 L 111.332031 117.425781 L 108.972656 118.285156 L 107.789063 118.714844 L 105.429688 119.574219 L 104.246094 120.003906 L 103.066406 120.433594 L 101.882813 120.867188 L 99.523438 121.726563 L 98.339844 122.15625 L 95.980469 123.015625 L 94.796875 123.445313 L 93.617188 123.875 L 92.433594 124.304688 L 90.074219 125.164063 L 88.890625 125.59375 L 87.710938 126.023438 L 86.527344 126.453125 L 84.167969 127.3125 L 82.984375 127.742188 L 81.804688 128.171875 L 80.625 128.605469 L 79.441406 129.035156 L 78.261719 129.464844 L 77.078125 129.894531 L 74.71875 130.753906 L 73.535156 131.183594 L 71.175781 132.042969 L 69.992188 132.472656 L 68.8125 132.902344 L 67.628906 133.332031 L 65.269531 134.191406 L 64.085938 134.621094 L 62.90625 135.050781 L 61.722656 135.480469 L 60.542969 135.914063 L 59.363281 136.34375 L 58.179688 136.773438 L 55.820313 137.632813 L 54.636719 138.0625 L 53.457031 138.492188 L 52.273438 138.921875 L 49.914063 139.78125 L 48.730469 140.210938 L 46.371094 141.070313 L 45.1875 141.5 "/>
<path style="fill:none;stroke-width:2.133957;stroke-linecap:butt;stroke-linejoin:round;stroke:rgb(0%,0%,0%);stroke-opacity:1;stroke-miterlimit:1;" d="M 115.941406 18.949219 L 114.980469 19.757813 L 114.015625 20.566406 L 113.054688 21.375 L 112.089844 22.183594 L 111.128906 22.992188 L 110.164063 23.796875 L 109.203125 24.605469 L 108.238281 25.414063 L 107.277344 26.222656 L 106.3125 27.03125 L 105.351563 27.839844 L 104.386719 28.644531 L 103.425781 29.453125 L 102.460938 30.261719 L 101.5 31.070313 L 100.535156 31.878906 L 99.574219 32.6875 L 98.609375 33.492188 L 97.648438 34.300781 L 96.683594 35.109375 L 95.722656 35.917969 L 94.757813 36.726563 L 93.796875 37.535156 L 92.832031 38.339844 L 91.871094 39.148438 L 90.90625 39.957031 L 89.945313 40.765625 L 88.980469 41.574219 L 88.019531 42.382813 L 87.054688 43.191406 L 86.09375 43.996094 L 85.128906 44.804688 L 84.167969 45.613281 L 83.203125 46.421875 L 82.242188 47.230469 L 81.277344 48.039063 L 80.316406 48.84375 L 79.351563 49.652344 L 78.390625 50.460938 L 77.425781 51.269531 L 76.464844 52.078125 L 75.5 52.886719 L 74.539063 53.691406 L 73.574219 54.5 L 72.613281 55.308594 L 71.648438 56.117188 L 70.6875 56.925781 L 69.722656 57.734375 L 68.761719 58.542969 L 67.796875 59.347656 L 66.835938 60.15625 L 65.871094 60.964844 L 64.910156 61.773438 L 63.945313 62.582031 L 62.984375 63.390625 L 62.019531 64.195313 L 61.058594 65.003906 L 60.09375 65.8125 L 59.132813 66.621094 L 58.167969 67.429688 L 57.207031 68.238281 L 56.242188 69.042969 L 55.28125 69.851563 L 54.316406 70.660156 L 53.355469 71.46875 L 52.390625 72.277344 L 51.429688 73.085938 L 50.464844 73.890625 L 49.503906 74.699219 L 48.539063 75.507813 L 47.578125 76.316406 L 46.613281 77.125 L 45.652344 77.933594 L 44.6875 78.742188 L 43.726563 79.546875 L 42.761719 80.355469 L 41.800781 81.164063 L 40.835938 81.972656 L 39.875 82.78125 L 38.910156 83.589844 L 37.949219 84.394531 L 36.984375 85.203125 L 36.023438 86.011719 L 35.058594 86.820313 L 34.097656 87.628906 L 33.132813 88.4375 L 32.171875 89.242188 L 31.207031 90.050781 L 30.246094 90.859375 L 29.28125 91.667969 L 28.320313 92.476563 L 27.355469 93.285156 L 26.394531 94.09375 L 25.429688 94.898438 L 24.46875 95.707031 L 22.539063 97.324219 L 21.578125 98.132813 L 20.613281 98.941406 "/>
<path style="fill:none;stroke-width:2.133957;stroke-linecap:butt;stroke-linejoin:round;stroke:rgb(0%,0%,0%);stroke-opacity:1;stroke-miterlimit:1;" d="M 153.589844 50.539063 L 152.246094 51.03125 L 150.902344 51.519531 L 149.5625 52.007813 L 144.1875 53.960938 L 142.84375 54.453125 L 141.5 54.941406 L 140.160156 55.429688 L 136.128906 56.894531 L 134.785156 57.386719 L 132.097656 58.363281 L 130.757813 58.851563 L 126.726563 60.316406 L 125.382813 60.808594 L 122.695313 61.785156 L 121.355469 62.273438 L 118.667969 63.25 L 117.324219 63.742188 L 114.636719 64.71875 L 113.296875 65.207031 L 109.265625 66.671875 L 107.921875 67.164063 L 105.234375 68.140625 L 103.894531 68.628906 L 101.207031 69.605469 L 99.863281 70.097656 L 95.832031 71.5625 L 94.492188 72.050781 L 91.804688 73.027344 L 90.460938 73.519531 L 86.429688 74.984375 L 85.089844 75.472656 L 83.746094 75.960938 L 82.402344 76.453125 L 77.027344 78.40625 L 75.6875 78.894531 L 74.34375 79.382813 L 73 79.875 L 67.625 81.828125 L 66.285156 82.316406 L 64.941406 82.808594 L 58.222656 85.25 L 56.882813 85.738281 L 55.539063 86.230469 L 48.820313 88.671875 L 47.480469 89.160156 L 46.136719 89.652344 L 39.417969 92.09375 L 38.078125 92.585938 L 30.015625 95.515625 L 28.675781 96.007813 L 21.957031 98.449219 L 20.613281 98.941406 "/>
<path style=" stroke:none;fill-rule:nonzero;fill:rgb(0%,26.27451%,30.980392%);fill-opacity:1;" d="M 126.96875 18.949219 C 126.96875 25.039063 122.03125 29.972656 115.941406 29.972656 C 109.855469 29.972656 104.917969 25.039063 104.917969 18.949219 C 104.917969 12.863281 109.855469 7.925781 115.941406 7.925781 C 122.03125 7.925781 126.96875 12.863281 126.96875 18.949219 "/>
<path style=" stroke:none;fill-rule:nonzero;fill:rgb(0%,26.27451%,30.980392%);fill-opacity:1;" d="M 164.613281 50.539063 C 164.613281 56.628906 159.679688 61.566406 153.589844 61.566406 C 147.503906 61.566406 142.566406 56.628906 142.566406 50.539063 C 142.566406 44.453125 147.503906 39.515625 153.589844 39.515625 C 159.679688 39.515625 164.613281 44.453125 164.613281 50.539063 "/>
<path style=" stroke:none;fill-rule:nonzero;fill:rgb(0%,26.27451%,30.980392%);fill-opacity:1;" d="M 173.148438 98.941406 C 173.148438 105.027344 168.214844 109.964844 162.125 109.964844 C 156.035156 109.964844 151.101563 105.027344 151.101563 98.941406 C 151.101563 92.851563 156.035156 87.914063 162.125 87.914063 C 168.214844 87.914063 173.148438 92.851563 173.148438 98.941406 "/>
<path style=" stroke:none;fill-rule:nonzero;fill:rgb(0%,26.27451%,30.980392%);fill-opacity:1;" d="M 148.574219 141.5 C 148.574219 147.589844 143.640625 152.523438 137.550781 152.523438 C 131.464844 152.523438 126.527344 147.589844 126.527344 141.5 C 126.527344 135.414063 131.464844 130.476563 137.550781 130.476563 C 143.640625 130.476563 148.574219 135.414063 148.574219 141.5 "/>
<path style=" stroke:none;fill-rule:nonzero;fill:rgb(0%,26.27451%,30.980392%);fill-opacity:1;" d="M 102.394531 158.308594 C 102.394531 164.398438 97.457031 169.335938 91.371094 169.335938 C 85.28125 169.335938 80.347656 164.398438 80.347656 158.308594 C 80.347656 152.222656 85.28125 147.285156 91.371094 147.285156 C 97.457031 147.285156 102.394531 152.222656 102.394531 158.308594 "/>
<path style=" stroke:none;fill-rule:nonzero;fill:rgb(0%,26.27451%,30.980392%);fill-opacity:1;" d="M 56.210938 141.5 C 56.210938 147.589844 51.277344 152.523438 45.1875 152.523438 C 39.097656 152.523438 34.164063 147.589844 34.164063 141.5 C 34.164063 135.414063 39.097656 130.476563 45.1875 130.476563 C 51.277344 130.476563 56.210938 135.414063 56.210938 141.5 "/>
<path style=" stroke:none;fill-rule:nonzero;fill:rgb(0%,26.27451%,30.980392%);fill-opacity:1;" d="M 31.640625 98.941406 C 31.640625 105.027344 26.703125 109.964844 20.613281 109.964844 C 14.527344 109.964844 9.589844 105.027344 9.589844 98.941406 C 9.589844 92.851563 14.527344 87.914063 20.613281 87.914063 C 26.703125 87.914063 31.640625 92.851563 31.640625 98.941406 "/>
<path style=" stroke:none;fill-rule:nonzero;fill:rgb(0%,26.27451%,30.980392%);fill-opacity:1;" d="M 40.171875 50.539063 C 40.171875 56.628906 35.238281 61.566406 29.148438 61.566406 C 23.0625 61.566406 18.125 56.628906 18.125 50.539063 C 18.125 44.453125 23.0625 39.515625 29.148438 39.515625 C 35.238281 39.515625 40.171875 44.453125 40.171875 50.539063 "/>
<path style=" stroke:none;fill-rule:nonzero;fill:rgb(0%,26.27451%,30.980392%);fill-opacity:1;" d="M 77.820313 18.949219 C 77.820313 25.039063 72.886719 29.972656 66.796875 29.972656 C 60.707031 29.972656 55.773438 25.039063 55.773438 18.949219 C 55.773438 12.863281 60.707031 7.925781 66.796875 7.925781 C 72.886719 7.925781 77.820313 12.863281 77.820313 18.949219 "/>
</g>
</svg>
