<?xml version="1.0" encoding="UTF-8"?>
<svg xmlns="http://www.w3.org/2000/svg" xmlns:xlink="http://www.w3.org/1999/xlink" width="504pt" height="504pt" viewBox="0 0 504 504" version="1.1">
<defs>
<clipPath id="clip1">
  <path d="M 0 3.355469 L 504 3.355469 L 504 500.648438 L 0 500.648438 Z M 0 3.355469 "/>
</clipPath>
</defs>
<g id="surface3565">
<rect x="0" y="0" width="504" height="504" style="fill:rgb(100%,100%,100%);fill-opacity:1;stroke:none;"/>
<g clip-path="url(#clip1)" clip-rule="nonzero">
<path style=" stroke:none;fill-rule:nonzero;fill:rgb(100%,100%,100%);fill-opacity:1;" d="M 0 500.644531 L 504 500.644531 L 504 3.351563 L 0 3.351563 Z M 0 500.644531 "/>
</g>
<path style="fill:none;stroke-width:1.066978;stroke-linecap:butt;stroke-linejoin:round;stroke:rgb(0%,0%,0%);stroke-opacity:1;stroke-miterlimit:1;" d="M 323.0625 53.003906 L 324.140625 53.910156 L 325.21875 54.8125 L 326.300781 55.71875 L 327.378906 56.625 L 328.457031 57.527344 L 331.691406 60.246094 L 332.769531 61.148438 L 334.925781 62.960938 L 336.007813 63.863281 L 338.164063 65.675781 L 339.242188 66.578125 L 341.398438 68.390625 L 342.476563 69.292969 L 344.632813 71.105469 L 345.714844 72.007813 L 347.871094 73.820313 L 348.949219 74.722656 L 352.183594 77.441406 L 353.261719 78.34375 L 354.339844 79.25 L 355.421875 80.15625 L 356.5 81.058594 L 358.65625 82.871094 L 359.734375 83.773438 L 361.890625 85.585938 L 362.96875 86.488281 L 364.046875 87.394531 L 365.128906 88.300781 L 366.207031 89.203125 L 368.363281 91.015625 L 369.441406 91.917969 L 371.597656 93.730469 L 372.675781 94.632813 L 373.753906 95.539063 L 374.835938 96.445313 L 375.914063 97.351563 L 376.992188 98.253906 L 379.148438 100.066406 L 380.226563 100.96875 L 382.382813 102.78125 L 383.460938 103.683594 L 384.542969 104.589844 L 385.621094 105.496094 L 386.699219 106.398438 L 388.855469 108.210938 L 389.933594 109.113281 L 392.089844 110.925781 L 393.167969 111.828125 L 394.246094 112.734375 L 395.328125 113.640625 L 396.40625 114.546875 L 397.484375 115.449219 L 399.640625 117.261719 L 400.71875 118.164063 L 402.875 119.976563 L 403.953125 120.878906 L 405.035156 121.785156 L 406.113281 122.691406 L 407.191406 123.59375 L 409.347656 125.40625 L 410.425781 126.308594 L 412.582031 128.121094 L 413.660156 129.023438 L 414.742188 129.929688 L 416.898438 131.742188 L 417.976563 132.644531 L 420.132813 134.457031 L 421.210938 135.359375 L 423.367188 137.171875 L 424.449219 138.074219 L 426.605469 139.886719 L 427.683594 140.789063 L 429.839844 142.601563 "/>
<path style="fill:none;stroke-width:1.066978;stroke-linecap:butt;stroke-linejoin:round;stroke:rgb(0%,0%,0%);stroke-opacity:1;stroke-miterlimit:1;" d="M 454.042969 279.871094 L 52.695313 279.871094 "/>
<path style="fill:none;stroke-width:1.066978;stroke-linecap:butt;stroke-linejoin:round;stroke:rgb(0%,0%,0%);stroke-opacity:1;stroke-miterlimit:1;" d="M 323.0625 53.003906 L 320.578125 53.910156 L 318.089844 54.8125 L 315.605469 55.71875 L 313.117188 56.625 L 310.632813 57.527344 L 305.65625 59.339844 L 303.171875 60.246094 L 300.683594 61.148438 L 298.199219 62.054688 L 295.710938 62.960938 L 293.226563 63.863281 L 290.738281 64.769531 L 288.253906 65.675781 L 285.765625 66.578125 L 283.28125 67.484375 L 280.792969 68.390625 L 278.304688 69.292969 L 275.820313 70.199219 L 273.332031 71.105469 L 270.847656 72.007813 L 268.359375 72.914063 L 265.875 73.820313 L 263.386719 74.722656 L 260.902344 75.628906 L 258.414063 76.535156 L 255.929688 77.441406 L 253.441406 78.34375 L 250.953125 79.25 L 248.46875 80.15625 L 245.980469 81.058594 L 243.496094 81.964844 L 241.007813 82.871094 L 238.523438 83.773438 L 236.035156 84.679688 L 233.550781 85.585938 L 231.0625 86.488281 L 228.578125 87.394531 L 226.089844 88.300781 L 223.601563 89.203125 L 221.117188 90.109375 L 218.628906 91.015625 L 216.144531 91.917969 L 213.65625 92.824219 L 211.171875 93.730469 L 208.683594 94.632813 L 206.199219 95.539063 L 203.710938 96.445313 L 201.226563 97.351563 L 198.738281 98.253906 L 196.25 99.160156 L 193.765625 100.066406 L 191.277344 100.96875 L 188.792969 101.875 L 186.304688 102.78125 L 183.820313 103.683594 L 181.332031 104.589844 L 178.847656 105.496094 L 176.359375 106.398438 L 173.875 107.304688 L 171.386719 108.210938 L 168.898438 109.113281 L 166.414063 110.019531 L 163.925781 110.925781 L 161.441406 111.828125 L 158.953125 112.734375 L 156.46875 113.640625 L 153.980469 114.546875 L 151.496094 115.449219 L 149.007813 116.355469 L 146.523438 117.261719 L 144.035156 118.164063 L 141.546875 119.070313 L 139.0625 119.976563 L 136.574219 120.878906 L 134.089844 121.785156 L 131.601563 122.691406 L 129.117188 123.59375 L 126.628906 124.5 L 124.144531 125.40625 L 121.65625 126.308594 L 119.171875 127.214844 L 116.683594 128.121094 L 114.195313 129.023438 L 111.710938 129.929688 L 109.222656 130.835938 L 106.738281 131.742188 L 104.25 132.644531 L 101.765625 133.550781 L 99.277344 134.457031 L 96.792969 135.359375 L 94.304688 136.265625 L 91.820313 137.171875 L 89.332031 138.074219 L 86.84375 138.980469 L 84.359375 139.886719 L 81.871094 140.789063 L 79.386719 141.695313 L 76.898438 142.601563 "/>
<path style="fill:none;stroke-width:1.066978;stroke-linecap:butt;stroke-linejoin:round;stroke:rgb(0%,0%,0%);stroke-opacity:1;stroke-miterlimit:1;" d="M 429.839844 142.601563 L 76.898438 142.601563 "/>
<path style="fill:none;stroke-width:1.066978;stroke-linecap:butt;stroke-linejoin:round;stroke:rgb(0%,0%,0%);stroke-opacity:1;stroke-miterlimit:1;" d="M 454.042969 279.871094 L 442.617188 275.710938 L 438.804688 274.324219 L 427.378906 270.164063 L 423.566406 268.777344 L 412.140625 264.617188 L 408.328125 263.230469 L 393.09375 257.683594 L 389.28125 256.296875 L 385.472656 254.910156 L 381.664063 253.527344 L 377.855469 252.140625 L 374.042969 250.753906 L 362.617188 246.59375 L 358.804688 245.207031 L 347.378906 241.046875 L 343.566406 239.660156 L 332.140625 235.5 L 328.328125 234.113281 L 316.902344 229.953125 L 313.089844 228.566406 L 301.664063 224.40625 L 297.851563 223.019531 L 290.234375 220.246094 L 286.425781 218.863281 L 282.613281 217.476563 L 271.1875 213.316406 L 267.375 211.929688 L 255.949219 207.769531 L 252.136719 206.382813 L 236.902344 200.835938 L 233.089844 199.449219 L 221.664063 195.289063 L 217.851563 193.902344 L 206.425781 189.742188 L 202.613281 188.355469 L 194.996094 185.582031 L 191.1875 184.199219 L 187.375 182.8125 L 175.949219 178.652344 L 172.136719 177.265625 L 160.710938 173.105469 L 156.898438 171.71875 L 145.472656 167.558594 L 141.660156 166.171875 L 130.234375 162.011719 L 126.421875 160.625 L 114.996094 156.464844 L 111.183594 155.078125 L 99.757813 150.917969 L 95.945313 149.535156 L 80.710938 143.988281 L 76.898438 142.601563 "/>
<path style="fill:none;stroke-width:1.066978;stroke-linecap:butt;stroke-linejoin:round;stroke:rgb(0%,0%,0%);stroke-opacity:1;stroke-miterlimit:1;" d="M 323.0625 53.003906 L 183.675781 53.003906 "/>
<path style="fill:none;stroke-width:1.066978;stroke-linecap:butt;stroke-linejoin:round;stroke:rgb(0%,0%,0%);stroke-opacity:1;stroke-miterlimit:1;" d="M 429.839844 142.601563 L 427.355469 141.695313 L 424.867188 140.789063 L 422.378906 139.886719 L 419.894531 138.980469 L 417.40625 138.074219 L 414.921875 137.171875 L 412.433594 136.265625 L 409.949219 135.359375 L 407.460938 134.457031 L 404.976563 133.550781 L 402.488281 132.644531 L 400.003906 131.742188 L 395.027344 129.929688 L 392.542969 129.023438 L 390.054688 128.121094 L 387.570313 127.214844 L 385.082031 126.308594 L 382.597656 125.40625 L 380.109375 124.5 L 377.625 123.59375 L 375.136719 122.691406 L 372.652344 121.785156 L 370.164063 120.878906 L 367.675781 119.976563 L 365.191406 119.070313 L 362.703125 118.164063 L 360.21875 117.261719 L 357.730469 116.355469 L 355.246094 115.449219 L 352.757813 114.546875 L 350.273438 113.640625 L 347.785156 112.734375 L 345.300781 111.828125 L 342.8125 110.925781 L 340.324219 110.019531 L 337.839844 109.113281 L 335.351563 108.210938 L 332.867188 107.304688 L 330.378906 106.398438 L 327.894531 105.496094 L 325.40625 104.589844 L 322.921875 103.683594 L 320.433594 102.78125 L 317.949219 101.875 L 315.460938 100.96875 L 312.972656 100.066406 L 310.488281 99.160156 L 308 98.253906 L 305.515625 97.351563 L 303.027344 96.445313 L 300.542969 95.539063 L 298.054688 94.632813 L 295.570313 93.730469 L 293.082031 92.824219 L 290.597656 91.917969 L 288.109375 91.015625 L 285.621094 90.109375 L 283.136719 89.203125 L 280.648438 88.300781 L 278.164063 87.394531 L 275.675781 86.488281 L 273.191406 85.585938 L 270.703125 84.679688 L 268.21875 83.773438 L 265.730469 82.871094 L 263.246094 81.964844 L 260.757813 81.058594 L 258.269531 80.15625 L 255.785156 79.25 L 253.296875 78.34375 L 250.8125 77.441406 L 248.324219 76.535156 L 245.839844 75.628906 L 243.351563 74.722656 L 240.867188 73.820313 L 238.378906 72.914063 L 235.894531 72.007813 L 233.40625 71.105469 L 230.917969 70.199219 L 228.433594 69.292969 L 225.945313 68.390625 L 223.460938 67.484375 L 220.972656 66.578125 L 218.488281 65.675781 L 216 64.769531 L 213.515625 63.863281 L 211.027344 62.960938 L 208.542969 62.054688 L 206.054688 61.148438 L 203.566406 60.246094 L 201.082031 59.339844 L 198.59375 58.433594 L 196.109375 57.527344 L 193.621094 56.625 L 191.136719 55.71875 L 188.648438 54.8125 L 186.164063 53.910156 L 183.675781 53.003906 "/>
<path style="fill:none;stroke-width:1.066978;stroke-linecap:butt;stroke-linejoin:round;stroke:rgb(0%,0%,0%);stroke-opacity:1;stroke-miterlimit:1;" d="M 454.042969 279.871094 L 448.582031 275.285156 L 445.851563 272.996094 L 443.121094 270.703125 L 440.390625 268.414063 L 437.660156 266.121094 L 434.925781 263.828125 L 432.195313 261.539063 L 426.734375 256.953125 L 424.003906 254.664063 L 418.542969 250.078125 L 415.8125 247.789063 L 413.078125 245.496094 L 410.347656 243.203125 L 407.617188 240.914063 L 404.886719 238.621094 L 402.15625 236.332031 L 396.695313 231.746094 L 393.960938 229.457031 L 388.5 224.871094 L 385.769531 222.582031 L 380.308594 217.996094 L 377.578125 215.707031 L 374.847656 213.414063 L 372.113281 211.121094 L 369.382813 208.832031 L 366.652344 206.539063 L 363.921875 204.25 L 358.460938 199.664063 L 355.730469 197.375 L 352.996094 195.082031 L 350.265625 192.789063 L 347.535156 190.5 L 342.074219 185.914063 L 339.34375 183.625 L 333.882813 179.039063 L 331.148438 176.75 L 328.417969 174.457031 L 325.6875 172.167969 L 320.226563 167.582031 L 317.496094 165.292969 L 314.765625 163 L 312.03125 160.707031 L 309.300781 158.417969 L 303.839844 153.832031 L 301.109375 151.542969 L 295.648438 146.957031 L 292.914063 144.667969 L 287.453125 140.082031 L 284.722656 137.792969 L 281.992188 135.5 L 279.261719 133.210938 L 273.800781 128.625 L 271.066406 126.335938 L 265.605469 121.75 L 262.875 119.460938 L 257.414063 114.875 L 254.683594 112.585938 L 251.949219 110.292969 L 249.21875 108 L 246.488281 105.710938 L 243.757813 103.417969 L 241.027344 101.128906 L 235.566406 96.542969 L 232.835938 94.253906 L 230.101563 91.960938 L 227.371094 89.667969 L 224.640625 87.378906 L 219.179688 82.792969 L 216.449219 80.503906 L 213.71875 78.210938 L 210.984375 75.917969 L 208.253906 73.628906 L 205.523438 71.335938 L 202.792969 69.046875 L 197.332031 64.460938 L 194.601563 62.171875 L 191.871094 59.878906 L 189.136719 57.585938 L 186.40625 55.296875 L 183.675781 53.003906 "/>
<path style="fill:none;stroke-width:1.066978;stroke-linecap:butt;stroke-linejoin:round;stroke:rgb(0%,0%,0%);stroke-opacity:1;stroke-miterlimit:1;" d="M 323.0625 53.003906 L 324.386719 55.296875 L 325.710938 57.585938 L 327.03125 59.878906 L 328.355469 62.171875 L 329.679688 64.460938 L 331 66.753906 L 332.324219 69.046875 L 333.648438 71.335938 L 334.972656 73.628906 L 336.292969 75.917969 L 338.941406 80.503906 L 340.261719 82.792969 L 342.910156 87.378906 L 344.230469 89.667969 L 346.878906 94.253906 L 348.203125 96.542969 L 349.523438 98.835938 L 350.847656 101.128906 L 352.171875 103.417969 L 353.492188 105.710938 L 354.816406 108 L 356.140625 110.292969 L 357.460938 112.585938 L 358.785156 114.875 L 361.433594 119.460938 L 362.753906 121.75 L 365.402344 126.335938 L 366.722656 128.625 L 369.371094 133.210938 L 370.691406 135.5 L 372.015625 137.792969 L 373.339844 140.082031 L 374.660156 142.375 L 375.984375 144.667969 L 377.308594 146.957031 L 378.632813 149.25 L 379.953125 151.542969 L 381.277344 153.832031 L 382.601563 156.125 L 383.921875 158.417969 L 385.246094 160.707031 L 386.570313 163 L 387.890625 165.292969 L 389.214844 167.582031 L 391.863281 172.167969 L 393.183594 174.457031 L 394.507813 176.75 L 395.832031 179.039063 L 397.152344 181.332031 L 398.476563 183.625 L 399.800781 185.914063 L 401.121094 188.207031 L 402.445313 190.5 L 403.769531 192.789063 L 405.09375 195.082031 L 406.414063 197.375 L 407.738281 199.664063 L 409.0625 201.957031 L 410.382813 204.25 L 411.707031 206.539063 L 413.03125 208.832031 L 414.351563 211.121094 L 417 215.707031 L 418.324219 217.996094 L 419.644531 220.289063 L 420.96875 222.582031 L 422.292969 224.871094 L 423.613281 227.164063 L 424.9375 229.457031 L 426.261719 231.746094 L 427.582031 234.039063 L 428.90625 236.332031 L 430.230469 238.621094 L 431.554688 240.914063 L 432.875 243.203125 L 435.523438 247.789063 L 436.84375 250.078125 L 439.492188 254.664063 L 440.8125 256.953125 L 443.460938 261.539063 L 444.785156 263.828125 L 446.105469 266.121094 L 447.429688 268.414063 L 448.753906 270.703125 L 450.074219 272.996094 L 451.398438 275.285156 L 452.722656 277.578125 L 454.042969 279.871094 "/>
<path style="fill:none;stroke-width:1.066978;stroke-linecap:butt;stroke-linejoin:round;stroke:rgb(0%,0%,0%);stroke-opacity:1;stroke-miterlimit:1;" d="M 323.0625 53.003906 L 323.683594 56.515625 L 324.300781 60.027344 L 324.921875 63.535156 L 325.539063 67.046875 L 326.160156 70.558594 L 326.777344 74.070313 L 327.398438 77.582031 L 328.015625 81.089844 L 328.636719 84.601563 L 329.253906 88.113281 L 329.875 91.625 L 330.492188 95.136719 L 331.109375 98.644531 L 331.730469 102.15625 L 332.347656 105.667969 L 332.96875 109.179688 L 333.585938 112.6875 L 334.207031 116.199219 L 334.824219 119.710938 L 335.445313 123.222656 L 336.0625 126.734375 L 336.683594 130.242188 L 337.300781 133.753906 L 337.921875 137.265625 L 338.539063 140.777344 L 339.160156 144.289063 L 339.777344 147.796875 L 340.398438 151.308594 L 341.015625 154.820313 L 341.636719 158.332031 L 342.253906 161.84375 L 342.875 165.351563 L 343.492188 168.863281 L 344.113281 172.375 L 344.730469 175.886719 L 345.351563 179.394531 L 345.96875 182.90625 L 346.589844 186.417969 L 347.824219 193.441406 L 348.445313 196.949219 L 349.0625 200.460938 L 349.683594 203.972656 L 350.300781 207.484375 L 350.921875 210.996094 L 351.539063 214.503906 L 352.160156 218.015625 L 352.777344 221.527344 L 353.398438 225.039063 L 354.015625 228.550781 L 354.636719 232.058594 L 355.253906 235.570313 L 355.875 239.082031 L 356.492188 242.59375 L 357.113281 246.101563 L 357.730469 249.613281 L 358.351563 253.125 L 358.96875 256.636719 L 359.589844 260.148438 L 360.207031 263.65625 L 360.828125 267.167969 L 361.445313 270.679688 L 362.066406 274.191406 L 362.683594 277.703125 L 363.304688 281.210938 L 364.539063 288.234375 L 365.160156 291.746094 L 365.777344 295.257813 L 366.398438 298.765625 L 367.015625 302.277344 L 367.636719 305.789063 L 368.253906 309.300781 L 368.875 312.808594 L 369.492188 316.320313 L 370.113281 319.832031 L 370.730469 323.34375 L 371.351563 326.855469 L 371.96875 330.363281 L 372.589844 333.875 L 373.207031 337.386719 L 373.828125 340.898438 L 374.445313 344.410156 L 375.066406 347.917969 L 375.683594 351.429688 L 376.304688 354.941406 L 376.921875 358.453125 L 377.542969 361.964844 L 378.160156 365.472656 L 378.78125 368.984375 L 380.015625 376.007813 L 380.636719 379.515625 L 381.253906 383.027344 L 381.875 386.539063 L 382.492188 390.050781 L 383.113281 393.5625 L 383.730469 397.070313 L 384.351563 400.582031 "/>
<path style="fill:none;stroke-width:1.066978;stroke-linecap:butt;stroke-linejoin:round;stroke:rgb(0%,0%,0%);stroke-opacity:1;stroke-miterlimit:1;" d="M 454.042969 279.871094 L 451.230469 284.746094 L 450.523438 285.964844 L 449.820313 287.1875 L 448.414063 289.625 L 447.707031 290.84375 L 445.597656 294.5 L 444.894531 295.722656 L 444.1875 296.941406 L 442.078125 300.597656 L 441.371094 301.816406 L 440.667969 303.039063 L 438.558594 306.695313 L 437.851563 307.914063 L 436.445313 310.351563 L 435.742188 311.574219 L 435.039063 312.792969 L 434.332031 314.011719 L 432.222656 317.667969 L 431.515625 318.886719 L 430.8125 320.109375 L 428.703125 323.765625 L 427.996094 324.984375 L 426.589844 327.421875 L 425.886719 328.644531 L 425.179688 329.863281 L 422.367188 334.738281 L 421.660156 335.957031 L 420.957031 337.179688 L 418.847656 340.835938 L 418.140625 342.054688 L 416.734375 344.492188 L 416.03125 345.714844 L 415.324219 346.933594 L 412.511719 351.808594 L 411.804688 353.03125 L 409.695313 356.6875 L 408.988281 357.90625 L 407.582031 360.34375 L 406.878906 361.566406 L 406.175781 362.785156 L 405.46875 364.003906 L 402.65625 368.878906 L 401.949219 370.101563 L 399.839844 373.757813 L 399.132813 374.976563 L 397.726563 377.414063 L 397.023438 378.636719 L 396.320313 379.855469 L 395.613281 381.074219 L 393.503906 384.730469 L 392.796875 385.949219 L 392.09375 387.171875 L 389.984375 390.828125 L 389.277344 392.046875 L 388.574219 393.265625 L 387.871094 394.488281 L 386.464844 396.925781 L 385.757813 398.144531 L 384.351563 400.582031 "/>
<path style="fill:none;stroke-width:1.066978;stroke-linecap:butt;stroke-linejoin:round;stroke:rgb(0%,0%,0%);stroke-opacity:1;stroke-miterlimit:1;" d="M 323.0625 53.003906 L 320.953125 64.980469 L 320.246094 68.972656 L 318.839844 76.957031 L 318.136719 80.953125 L 317.433594 84.945313 L 316.726563 88.9375 L 314.617188 100.914063 L 313.910156 104.90625 L 311.097656 120.875 L 310.390625 124.867188 L 308.28125 136.84375 L 307.574219 140.839844 L 304.761719 156.808594 L 304.054688 160.800781 L 301.945313 172.777344 L 301.238281 176.769531 L 298.425781 192.738281 L 297.71875 196.730469 L 297.015625 200.722656 L 296.3125 204.71875 L 294.90625 212.703125 L 294.199219 216.695313 L 292.089844 228.671875 L 291.382813 232.664063 L 288.570313 248.632813 L 287.863281 252.625 L 286.457031 260.609375 L 285.753906 264.605469 L 285.046875 268.597656 L 282.234375 284.566406 L 281.527344 288.558594 L 278.714844 304.527344 L 278.007813 308.519531 L 275.898438 320.496094 L 275.191406 324.492188 L 272.378906 340.460938 L 271.671875 344.453125 L 269.5625 356.429688 L 268.855469 360.421875 L 266.042969 376.390625 L 265.335938 380.382813 L 264.632813 384.378906 L 262.523438 396.355469 L 261.816406 400.347656 L 259.707031 412.324219 L 259 416.316406 L 256.1875 432.285156 L 255.480469 436.277344 L 254.777344 440.269531 L 254.074219 444.265625 L 253.371094 448.257813 "/>
<path style="fill:none;stroke-width:1.066978;stroke-linecap:butt;stroke-linejoin:round;stroke:rgb(0%,0%,0%);stroke-opacity:1;stroke-miterlimit:1;" d="M 454.042969 279.871094 L 452.019531 281.570313 L 449.992188 283.273438 L 445.9375 286.671875 L 443.910156 288.375 L 441.882813 290.074219 L 439.855469 291.777344 L 437.828125 293.476563 L 435.800781 295.179688 L 431.746094 298.578125 L 429.71875 300.28125 L 427.695313 301.980469 L 425.667969 303.683594 L 423.640625 305.382813 L 421.613281 307.085938 L 417.558594 310.484375 L 415.53125 312.1875 L 413.503906 313.886719 L 411.476563 315.589844 L 407.421875 318.988281 L 405.394531 320.691406 L 403.371094 322.390625 L 401.34375 324.09375 L 399.316406 325.792969 L 397.289063 327.496094 L 393.234375 330.894531 L 391.207031 332.597656 L 389.179688 334.296875 L 387.152344 336 L 385.125 337.699219 L 383.097656 339.402344 L 381.070313 341.101563 L 379.046875 342.800781 L 377.019531 344.503906 L 374.992188 346.203125 L 372.964844 347.90625 L 368.910156 351.304688 L 366.882813 353.007813 L 364.855469 354.707031 L 362.828125 356.410156 L 360.800781 358.109375 L 358.773438 359.8125 L 356.746094 361.511719 L 354.722656 363.210938 L 352.695313 364.914063 L 350.667969 366.613281 L 348.640625 368.316406 L 346.613281 370.015625 L 344.585938 371.71875 L 340.53125 375.117188 L 338.503906 376.820313 L 336.476563 378.519531 L 334.449219 380.222656 L 332.421875 381.921875 L 330.398438 383.625 L 326.34375 387.023438 L 324.316406 388.726563 L 322.289063 390.425781 L 320.261719 392.128906 L 316.207031 395.527344 L 314.179688 397.230469 L 312.152344 398.929688 L 310.125 400.632813 L 308.097656 402.332031 L 306.074219 404.035156 L 302.019531 407.433594 L 299.992188 409.136719 L 297.964844 410.835938 L 295.9375 412.539063 L 293.910156 414.238281 L 291.882813 415.941406 L 287.828125 419.339844 L 285.800781 421.042969 L 283.773438 422.742188 L 281.75 424.445313 L 279.722656 426.144531 L 277.695313 427.847656 L 273.640625 431.246094 L 271.613281 432.949219 L 269.585938 434.648438 L 267.558594 436.351563 L 263.503906 439.75 L 261.476563 441.453125 L 259.449219 443.152344 L 257.425781 444.855469 L 255.398438 446.554688 L 253.371094 448.257813 "/>
<path style="fill:none;stroke-width:1.066978;stroke-linecap:butt;stroke-linejoin:round;stroke:rgb(0%,0%,0%);stroke-opacity:1;stroke-miterlimit:1;" d="M 454.042969 279.871094 L 450.695313 281.089844 L 447.34375 282.308594 L 443.996094 283.527344 L 437.292969 285.964844 L 433.945313 287.1875 L 427.242188 289.625 L 423.894531 290.84375 L 420.542969 292.0625 L 417.195313 293.28125 L 413.84375 294.5 L 410.492188 295.722656 L 407.144531 296.941406 L 403.792969 298.160156 L 400.445313 299.378906 L 393.742188 301.816406 L 390.394531 303.039063 L 383.691406 305.476563 L 380.34375 306.695313 L 376.992188 307.914063 L 373.644531 309.132813 L 370.292969 310.351563 L 366.941406 311.574219 L 363.59375 312.792969 L 360.242188 314.011719 L 356.894531 315.230469 L 350.191406 317.667969 L 346.84375 318.886719 L 343.492188 320.109375 L 340.144531 321.328125 L 333.441406 323.765625 L 330.09375 324.984375 L 323.390625 327.421875 L 320.042969 328.644531 L 316.691406 329.863281 L 313.34375 331.082031 L 306.640625 333.519531 L 303.292969 334.738281 L 299.941406 335.957031 L 296.59375 337.179688 L 289.890625 339.617188 L 286.542969 340.835938 L 279.839844 343.273438 L 276.492188 344.492188 L 273.140625 345.714844 L 269.792969 346.933594 L 263.089844 349.371094 L 259.742188 350.589844 L 256.390625 351.808594 L 253.042969 353.03125 L 246.339844 355.46875 L 242.992188 356.6875 L 236.289063 359.125 L 232.941406 360.34375 L 229.589844 361.566406 L 226.242188 362.785156 L 219.539063 365.222656 L 216.191406 366.441406 L 212.839844 367.660156 L 209.492188 368.878906 L 206.140625 370.101563 L 202.789063 371.320313 L 199.441406 372.539063 L 192.738281 374.976563 L 189.390625 376.195313 L 186.039063 377.414063 L 182.691406 378.636719 L 175.988281 381.074219 L 172.640625 382.292969 L 169.289063 383.511719 L 165.941406 384.730469 L 162.589844 385.949219 L 159.238281 387.171875 L 155.890625 388.390625 L 149.1875 390.828125 L 145.839844 392.046875 L 142.488281 393.265625 L 139.140625 394.488281 L 132.4375 396.925781 L 129.089844 398.144531 L 125.738281 399.363281 L 122.390625 400.582031 "/>
<path style="fill:none;stroke-width:1.066978;stroke-linecap:butt;stroke-linejoin:round;stroke:rgb(0%,0%,0%);stroke-opacity:1;stroke-miterlimit:1;" d="M 323.0625 53.003906 L 320.332031 55.296875 L 317.601563 57.585938 L 312.140625 62.171875 L 309.410156 64.460938 L 306.675781 66.753906 L 303.945313 69.046875 L 301.214844 71.335938 L 298.484375 73.628906 L 295.753906 75.917969 L 290.292969 80.503906 L 287.5625 82.792969 L 284.828125 85.085938 L 282.097656 87.378906 L 279.367188 89.667969 L 273.90625 94.253906 L 271.175781 96.542969 L 268.445313 98.835938 L 265.710938 101.128906 L 262.980469 103.417969 L 260.25 105.710938 L 257.519531 108 L 252.058594 112.585938 L 249.328125 114.875 L 246.59375 117.167969 L 243.863281 119.460938 L 241.132813 121.75 L 235.671875 126.335938 L 232.941406 128.625 L 227.480469 133.210938 L 224.746094 135.5 L 222.015625 137.792969 L 219.285156 140.082031 L 213.824219 144.667969 L 211.09375 146.957031 L 208.363281 149.25 L 205.628906 151.542969 L 202.898438 153.832031 L 197.4375 158.417969 L 194.707031 160.707031 L 189.246094 165.292969 L 186.515625 167.582031 L 183.78125 169.875 L 181.050781 172.167969 L 178.320313 174.457031 L 175.589844 176.75 L 172.859375 179.039063 L 167.398438 183.625 L 164.664063 185.914063 L 159.203125 190.5 L 156.472656 192.789063 L 151.011719 197.375 L 148.28125 199.664063 L 145.550781 201.957031 L 142.816406 204.25 L 140.085938 206.539063 L 137.355469 208.832031 L 134.625 211.121094 L 129.164063 215.707031 L 126.433594 217.996094 L 123.699219 220.289063 L 120.96875 222.582031 L 118.238281 224.871094 L 112.777344 229.457031 L 110.046875 231.746094 L 104.585938 236.332031 L 101.851563 238.621094 L 99.121094 240.914063 L 96.390625 243.203125 L 90.929688 247.789063 L 88.199219 250.078125 L 85.46875 252.371094 L 82.734375 254.664063 L 80.003906 256.953125 L 74.542969 261.539063 L 71.8125 263.828125 L 66.351563 268.414063 L 63.617188 270.703125 L 60.886719 272.996094 L 58.15625 275.285156 L 52.695313 279.871094 "/>
<path style="fill:none;stroke-width:1.066978;stroke-linecap:butt;stroke-linejoin:round;stroke:rgb(0%,0%,0%);stroke-opacity:1;stroke-miterlimit:1;" d="M 429.839844 142.601563 L 422.222656 145.375 L 418.410156 146.761719 L 410.792969 149.535156 L 406.984375 150.917969 L 403.171875 152.304688 L 391.746094 156.464844 L 387.933594 157.851563 L 376.507813 162.011719 L 372.695313 163.398438 L 361.269531 167.558594 L 357.457031 168.945313 L 346.03125 173.105469 L 342.21875 174.492188 L 326.984375 180.039063 L 323.171875 181.425781 L 315.554688 184.199219 L 311.746094 185.582031 L 307.933594 186.96875 L 296.507813 191.128906 L 292.695313 192.515625 L 281.269531 196.675781 L 277.457031 198.0625 L 266.03125 202.222656 L 262.21875 203.609375 L 250.792969 207.769531 L 246.980469 209.15625 L 235.554688 213.316406 L 231.742188 214.703125 L 220.316406 218.863281 L 216.503906 220.246094 L 205.078125 224.40625 L 201.265625 225.792969 L 189.839844 229.953125 L 186.027344 231.339844 L 170.792969 236.886719 L 166.980469 238.273438 L 155.554688 242.433594 L 151.742188 243.820313 L 140.316406 247.980469 L 136.503906 249.367188 L 125.078125 253.527344 L 121.265625 254.910156 L 109.839844 259.070313 L 106.027344 260.457031 L 94.601563 264.617188 L 90.789063 266.003906 L 79.363281 270.164063 L 75.550781 271.550781 L 64.125 275.710938 L 60.3125 277.097656 L 52.695313 279.871094 "/>
<path style=" stroke:none;fill-rule:nonzero;fill:rgb(0%,26.27451%,30.980392%);fill-opacity:1;" d="M 334.085938 53.003906 C 334.085938 59.09375 329.152344 64.027344 323.0625 64.027344 C 316.976563 64.027344 312.039063 59.09375 312.039063 53.003906 C 312.039063 46.914063 316.976563 41.980469 323.0625 41.980469 C 329.152344 41.980469 334.085938 46.914063 334.085938 53.003906 "/>
<path style=" stroke:none;fill-rule:nonzero;fill:rgb(0%,26.27451%,30.980392%);fill-opacity:1;" d="M 440.863281 142.601563 C 440.863281 148.6875 435.929688 153.625 429.839844 153.625 C 423.75 153.625 418.816406 148.6875 418.816406 142.601563 C 418.816406 136.511719 423.75 131.578125 429.839844 131.578125 C 435.929688 131.578125 440.863281 136.511719 440.863281 142.601563 "/>
<path style=" stroke:none;fill-rule:nonzero;fill:rgb(0%,26.27451%,30.980392%);fill-opacity:1;" d="M 465.070313 279.871094 C 465.070313 285.957031 460.132813 290.894531 454.042969 290.894531 C 447.957031 290.894531 443.019531 285.957031 443.019531 279.871094 C 443.019531 273.78125 447.957031 268.847656 454.042969 268.847656 C 460.132813 268.847656 465.070313 273.78125 465.070313 279.871094 "/>
<path style=" stroke:none;fill-rule:nonzero;fill:rgb(0%,26.27451%,30.980392%);fill-opacity:1;" d="M 395.375 400.582031 C 395.375 406.671875 390.4375 411.605469 384.351563 411.605469 C 378.261719 411.605469 373.328125 406.671875 373.328125 400.582031 C 373.328125 394.496094 378.261719 389.558594 384.351563 389.558594 C 390.4375 389.558594 395.375 394.496094 395.375 400.582031 "/>
<path style=" stroke:none;fill-rule:nonzero;fill:rgb(0%,26.27451%,30.980392%);fill-opacity:1;" d="M 264.394531 448.257813 C 264.394531 454.34375 259.457031 459.28125 253.371094 459.28125 C 247.28125 459.28125 242.347656 454.34375 242.347656 448.257813 C 242.347656 442.167969 247.28125 437.230469 253.371094 437.230469 C 259.457031 437.230469 264.394531 442.167969 264.394531 448.257813 "/>
<path style=" stroke:none;fill-rule:nonzero;fill:rgb(0%,26.27451%,30.980392%);fill-opacity:1;" d="M 133.414063 400.582031 C 133.414063 406.671875 128.476563 411.605469 122.390625 411.605469 C 116.300781 411.605469 111.363281 406.671875 111.363281 400.582031 C 111.363281 394.496094 116.300781 389.558594 122.390625 389.558594 C 128.476563 389.558594 133.414063 394.496094 133.414063 400.582031 "/>
<path style=" stroke:none;fill-rule:nonzero;fill:rgb(0%,26.27451%,30.980392%);fill-opacity:1;" d="M 63.71875 279.871094 C 63.71875 285.957031 58.785156 290.894531 52.695313 290.894531 C 46.605469 290.894531 41.671875 285.957031 41.671875 279.871094 C 41.671875 273.78125 46.605469 268.847656 52.695313 268.847656 C 58.785156 268.847656 63.71875 273.78125 63.71875 279.871094 "/>
<path style=" stroke:none;fill-rule:nonzero;fill:rgb(0%,26.27451%,30.980392%);fill-opacity:1;" d="M 87.921875 142.601563 C 87.921875 148.6875 82.988281 153.625 76.898438 153.625 C 70.8125 153.625 65.875 148.6875 65.875 142.601563 C 65.875 136.511719 70.8125 131.578125 76.898438 131.578125 C 82.988281 131.578125 87.921875 136.511719 87.921875 142.601563 "/>
<path style=" stroke:none;fill-rule:nonzero;fill:rgb(0%,26.27451%,30.980392%);fill-opacity:1;" d="M 194.699219 53.003906 C 194.699219 59.09375 189.765625 64.027344 183.675781 64.027344 C 177.585938 64.027344 172.652344 59.09375 172.652344 53.003906 C 172.652344 46.914063 177.585938 41.980469 183.675781 41.980469 C 189.765625 41.980469 194.699219 46.914063 194.699219 53.003906 "/>
</g>
</svg>
