<?xml version="1.0" encoding="UTF-8"?>
<svg xmlns="http://www.w3.org/2000/svg" xmlns:xlink="http://www.w3.org/1999/xlink" width="144pt" height="144pt" viewBox="0 0 144 144" version="1.1">
<defs>
<clipPath id="clip1">
  <path d="M 0 0.910156 L 144 0.910156 L 144 143.09375 L 0 143.09375 Z M 0 0.910156 "/>
</clipPath>
</defs>
<g id="surface24">
<rect x="0" y="0" width="144" height="144" style="fill:rgb(100%,100%,100%);fill-opacity:1;stroke:none;"/>
<g clip-path="url(#clip1)" clip-rule="nonzero">
<path style=" stroke:none;fill-rule:nonzero;fill:rgb(100%,100%,100%);fill-opacity:1;" d="M 0 143.089844 L 144 143.089844 L 144 0.90625 L 0 0.90625 Z M 0 143.089844 "/>
</g>
<path style="fill:none;stroke-width:2.133957;stroke-linecap:butt;stroke-linejoin:round;stroke:rgb(0%,0%,0%);stroke-opacity:1;stroke-miterlimit:1;" d="M 92.257813 17.066406 L 92.550781 17.3125 L 92.84375 17.554688 L 93.722656 18.292969 L 94.011719 18.539063 L 94.304688 18.78125 L 95.476563 19.765625 L 95.769531 20.007813 L 96.058594 20.253906 L 96.644531 20.746094 L 96.9375 20.988281 L 97.523438 21.480469 L 97.8125 21.726563 L 98.105469 21.972656 L 98.398438 22.214844 L 99.277344 22.953125 L 99.566406 23.199219 L 99.859375 23.441406 L 101.03125 24.425781 L 101.320313 24.667969 L 102.492188 25.652344 L 102.785156 25.894531 L 103.074219 26.140625 L 103.953125 26.878906 L 104.246094 27.121094 L 104.539063 27.367188 L 104.828125 27.613281 L 105.414063 28.105469 L 105.707031 28.347656 L 106.292969 28.839844 L 106.582031 29.085938 L 106.875 29.332031 L 107.167969 29.574219 L 108.339844 30.558594 L 108.628906 30.800781 L 109.507813 31.539063 L 109.800781 31.78125 L 110.09375 32.027344 L 110.382813 32.273438 L 110.96875 32.765625 L 111.261719 33.007813 L 111.847656 33.5 L 112.136719 33.746094 L 112.429688 33.992188 L 112.722656 34.234375 L 113.601563 34.972656 L 113.890625 35.21875 L 114.183594 35.460938 L 115.355469 36.445313 L 115.644531 36.6875 L 116.816406 37.671875 L 117.109375 37.914063 L 117.398438 38.160156 L 118.277344 38.898438 L 118.570313 39.140625 L 118.863281 39.386719 L 119.152344 39.632813 L 119.738281 40.125 L 120.03125 40.367188 L 120.910156 41.105469 L 121.199219 41.351563 "/>
<path style="fill:none;stroke-width:2.133957;stroke-linecap:butt;stroke-linejoin:round;stroke:rgb(0%,0%,0%);stroke-opacity:1;stroke-miterlimit:1;" d="M 127.761719 78.554688 L 18.980469 78.554688 "/>
<path style="fill:none;stroke-width:2.133957;stroke-linecap:butt;stroke-linejoin:round;stroke:rgb(0%,0%,0%);stroke-opacity:1;stroke-miterlimit:1;" d="M 92.257813 17.066406 L 91.585938 17.3125 L 90.910156 17.554688 L 90.238281 17.800781 L 89.5625 18.046875 L 88.890625 18.292969 L 88.214844 18.539063 L 87.542969 18.78125 L 86.867188 19.027344 L 86.195313 19.273438 L 85.519531 19.519531 L 84.847656 19.765625 L 84.171875 20.007813 L 83.5 20.253906 L 82.824219 20.5 L 82.152344 20.746094 L 81.476563 20.988281 L 80.800781 21.234375 L 80.128906 21.480469 L 79.453125 21.726563 L 78.78125 21.972656 L 78.105469 22.214844 L 77.433594 22.460938 L 76.757813 22.707031 L 76.085938 22.953125 L 75.410156 23.199219 L 74.738281 23.441406 L 74.0625 23.6875 L 73.390625 23.933594 L 72.714844 24.179688 L 72.042969 24.425781 L 71.367188 24.667969 L 70.695313 24.914063 L 69.34375 25.40625 L 68.671875 25.652344 L 67.996094 25.894531 L 67.324219 26.140625 L 66.648438 26.386719 L 65.976563 26.632813 L 65.300781 26.878906 L 64.628906 27.121094 L 63.953125 27.367188 L 63.28125 27.613281 L 62.605469 27.859375 L 61.933594 28.105469 L 61.257813 28.347656 L 60.585938 28.59375 L 59.910156 28.839844 L 59.238281 29.085938 L 58.5625 29.332031 L 57.886719 29.574219 L 57.214844 29.820313 L 56.539063 30.066406 L 55.867188 30.3125 L 55.191406 30.558594 L 54.519531 30.800781 L 53.84375 31.046875 L 53.171875 31.292969 L 52.496094 31.539063 L 51.824219 31.78125 L 51.148438 32.027344 L 50.476563 32.273438 L 49.800781 32.519531 L 49.128906 32.765625 L 48.453125 33.007813 L 47.78125 33.253906 L 46.429688 33.746094 L 45.757813 33.992188 L 45.082031 34.234375 L 44.410156 34.480469 L 43.734375 34.726563 L 43.0625 34.972656 L 42.386719 35.21875 L 41.714844 35.460938 L 41.039063 35.707031 L 40.367188 35.953125 L 39.691406 36.199219 L 39.019531 36.445313 L 38.34375 36.6875 L 37.671875 36.933594 L 36.996094 37.179688 L 36.324219 37.425781 L 35.648438 37.671875 L 34.972656 37.914063 L 34.300781 38.160156 L 33.625 38.40625 L 32.953125 38.652344 L 32.277344 38.898438 L 31.605469 39.140625 L 30.929688 39.386719 L 30.257813 39.632813 L 29.582031 39.878906 L 28.910156 40.125 L 28.234375 40.367188 L 27.5625 40.613281 L 26.886719 40.859375 L 26.214844 41.105469 L 25.539063 41.351563 "/>
<path style="fill:none;stroke-width:2.133957;stroke-linecap:butt;stroke-linejoin:round;stroke:rgb(0%,0%,0%);stroke-opacity:1;stroke-miterlimit:1;" d="M 121.199219 41.351563 L 25.539063 41.351563 "/>
<path style="fill:none;stroke-width:2.133957;stroke-linecap:butt;stroke-linejoin:round;stroke:rgb(0%,0%,0%);stroke-opacity:1;stroke-miterlimit:1;" d="M 127.761719 78.554688 L 126.726563 78.179688 L 124.664063 77.429688 L 123.628906 77.050781 L 121.566406 76.300781 L 120.53125 75.925781 L 119.5 75.550781 L 118.46875 75.171875 L 117.433594 74.796875 L 115.371094 74.046875 L 114.335938 73.667969 L 112.273438 72.917969 L 111.238281 72.542969 L 110.207031 72.167969 L 109.175781 71.789063 L 108.144531 71.414063 L 107.109375 71.039063 L 105.046875 70.289063 L 104.011719 69.910156 L 101.949219 69.160156 L 100.914063 68.785156 L 99.882813 68.410156 L 98.851563 68.03125 L 97.816406 67.65625 L 95.753906 66.90625 L 94.71875 66.527344 L 92.65625 65.777344 L 91.621094 65.402344 L 90.589844 65.027344 L 89.558594 64.648438 L 88.523438 64.273438 L 86.460938 63.523438 L 85.425781 63.148438 L 84.394531 62.769531 L 83.363281 62.394531 L 82.328125 62.019531 L 80.265625 61.269531 L 79.230469 60.890625 L 77.167969 60.140625 L 76.132813 59.765625 L 75.101563 59.390625 L 74.070313 59.011719 L 73.035156 58.636719 L 70.972656 57.886719 L 69.9375 57.507813 L 67.875 56.757813 L 66.839844 56.382813 L 65.808594 56.007813 L 64.777344 55.628906 L 63.742188 55.253906 L 61.679688 54.503906 L 60.644531 54.128906 L 59.613281 53.75 L 58.582031 53.375 L 57.546875 53 L 55.484375 52.25 L 54.449219 51.871094 L 52.386719 51.121094 L 51.351563 50.746094 L 50.320313 50.371094 L 49.289063 49.992188 L 48.253906 49.617188 L 46.191406 48.867188 L 45.15625 48.488281 L 43.09375 47.738281 L 42.058594 47.363281 L 41.027344 46.988281 L 39.996094 46.609375 L 38.960938 46.234375 L 36.898438 45.484375 L 35.863281 45.109375 L 34.832031 44.730469 L 33.800781 44.355469 L 32.765625 43.980469 L 30.703125 43.230469 L 29.667969 42.851563 L 27.605469 42.101563 L 26.570313 41.726563 L 25.539063 41.351563 "/>
<path style="fill:none;stroke-width:2.133957;stroke-linecap:butt;stroke-linejoin:round;stroke:rgb(0%,0%,0%);stroke-opacity:1;stroke-miterlimit:1;" d="M 92.257813 17.066406 L 54.480469 17.066406 "/>
<path style="fill:none;stroke-width:2.133957;stroke-linecap:butt;stroke-linejoin:round;stroke:rgb(0%,0%,0%);stroke-opacity:1;stroke-miterlimit:1;" d="M 121.199219 41.351563 L 120.527344 41.105469 L 119.851563 40.859375 L 119.179688 40.613281 L 118.503906 40.367188 L 117.832031 40.125 L 117.15625 39.878906 L 116.484375 39.632813 L 115.808594 39.386719 L 115.136719 39.140625 L 114.460938 38.898438 L 113.789063 38.652344 L 112.4375 38.160156 L 111.765625 37.914063 L 111.089844 37.671875 L 110.417969 37.425781 L 109.742188 37.179688 L 109.070313 36.933594 L 108.394531 36.6875 L 107.722656 36.445313 L 107.046875 36.199219 L 106.375 35.953125 L 105.699219 35.707031 L 105.027344 35.460938 L 104.351563 35.21875 L 103.679688 34.972656 L 103.003906 34.726563 L 102.332031 34.480469 L 101.65625 34.234375 L 100.980469 33.992188 L 100.308594 33.746094 L 99.632813 33.5 L 98.960938 33.253906 L 98.285156 33.007813 L 97.613281 32.765625 L 96.9375 32.519531 L 96.265625 32.273438 L 95.589844 32.027344 L 94.917969 31.78125 L 94.242188 31.539063 L 93.570313 31.292969 L 92.894531 31.046875 L 92.222656 30.800781 L 91.546875 30.558594 L 90.871094 30.3125 L 90.199219 30.066406 L 89.523438 29.820313 L 88.851563 29.574219 L 88.175781 29.332031 L 87.503906 29.085938 L 86.828125 28.839844 L 86.15625 28.59375 L 85.480469 28.347656 L 84.808594 28.105469 L 84.132813 27.859375 L 83.460938 27.613281 L 82.785156 27.367188 L 82.113281 27.121094 L 81.4375 26.878906 L 80.765625 26.632813 L 79.414063 26.140625 L 78.742188 25.894531 L 78.066406 25.652344 L 77.394531 25.40625 L 76.71875 25.160156 L 76.046875 24.914063 L 75.371094 24.667969 L 74.699219 24.425781 L 74.023438 24.179688 L 73.351563 23.933594 L 72.675781 23.6875 L 72.003906 23.441406 L 71.328125 23.199219 L 70.65625 22.953125 L 69.980469 22.707031 L 69.308594 22.460938 L 68.632813 22.214844 L 67.957031 21.972656 L 67.285156 21.726563 L 66.609375 21.480469 L 65.9375 21.234375 L 65.261719 20.988281 L 64.589844 20.746094 L 63.914063 20.5 L 63.242188 20.253906 L 62.566406 20.007813 L 61.894531 19.765625 L 61.21875 19.519531 L 60.546875 19.273438 L 59.871094 19.027344 L 59.199219 18.78125 L 58.523438 18.539063 L 57.851563 18.292969 L 56.5 17.800781 L 55.828125 17.554688 L 55.152344 17.3125 L 54.480469 17.066406 "/>
<path style="fill:none;stroke-width:2.133957;stroke-linecap:butt;stroke-linejoin:round;stroke:rgb(0%,0%,0%);stroke-opacity:1;stroke-miterlimit:1;" d="M 127.761719 78.554688 L 127.019531 77.933594 L 126.28125 77.3125 L 125.539063 76.691406 L 124.800781 76.070313 L 124.058594 75.449219 L 123.320313 74.828125 L 122.578125 74.207031 L 121.839844 73.585938 L 121.097656 72.964844 L 120.359375 72.34375 L 119.617188 71.722656 L 118.878906 71.101563 L 118.136719 70.480469 L 117.398438 69.859375 L 116.65625 69.238281 L 115.917969 68.617188 L 115.175781 67.996094 L 114.4375 67.375 L 113.695313 66.753906 L 112.957031 66.132813 L 112.214844 65.511719 L 111.476563 64.890625 L 110.734375 64.269531 L 109.996094 63.648438 L 109.253906 63.027344 L 108.515625 62.40625 L 107.773438 61.785156 L 107.035156 61.164063 L 106.292969 60.542969 L 105.554688 59.921875 L 104.8125 59.300781 L 104.074219 58.679688 L 103.332031 58.058594 L 101.855469 56.816406 L 101.113281 56.195313 L 100.375 55.574219 L 99.632813 54.953125 L 98.894531 54.332031 L 98.152344 53.710938 L 97.414063 53.089844 L 96.671875 52.46875 L 95.933594 51.847656 L 95.191406 51.226563 L 94.453125 50.605469 L 93.710938 49.984375 L 92.972656 49.363281 L 92.230469 48.742188 L 91.492188 48.121094 L 90.75 47.5 L 90.011719 46.878906 L 89.269531 46.257813 L 88.53125 45.636719 L 87.789063 45.015625 L 87.050781 44.394531 L 86.308594 43.773438 L 85.570313 43.152344 L 84.828125 42.53125 L 84.089844 41.910156 L 83.347656 41.289063 L 82.609375 40.667969 L 81.867188 40.046875 L 81.128906 39.425781 L 80.386719 38.804688 L 79.648438 38.183594 L 78.90625 37.5625 L 78.167969 36.941406 L 77.425781 36.320313 L 76.6875 35.699219 L 75.945313 35.078125 L 75.207031 34.457031 L 74.464844 33.835938 L 73.726563 33.214844 L 72.984375 32.59375 L 72.246094 31.972656 L 71.503906 31.351563 L 70.765625 30.730469 L 70.023438 30.109375 L 69.285156 29.488281 L 68.542969 28.867188 L 67.804688 28.246094 L 67.0625 27.625 L 66.324219 27.003906 L 65.582031 26.382813 L 64.84375 25.761719 L 64.101563 25.140625 L 63.363281 24.519531 L 62.621094 23.898438 L 61.882813 23.277344 L 61.140625 22.65625 L 60.402344 22.035156 L 59.660156 21.414063 L 58.921875 20.792969 L 58.179688 20.171875 L 57.441406 19.550781 L 56.699219 18.929688 L 55.960938 18.308594 L 55.21875 17.6875 L 54.480469 17.066406 "/>
<path style="fill:none;stroke-width:2.133957;stroke-linecap:butt;stroke-linejoin:round;stroke:rgb(0%,0%,0%);stroke-opacity:1;stroke-miterlimit:1;" d="M 92.257813 17.066406 L 93.695313 19.550781 L 94.050781 20.171875 L 95.488281 22.65625 L 95.84375 23.277344 L 97.28125 25.761719 L 97.636719 26.382813 L 99.074219 28.867188 L 99.429688 29.488281 L 101.226563 32.59375 L 101.582031 33.214844 L 103.019531 35.699219 L 103.375 36.320313 L 104.8125 38.804688 L 105.167969 39.425781 L 106.605469 41.910156 L 106.960938 42.53125 L 108.398438 45.015625 L 108.753906 45.636719 L 110.191406 48.121094 L 110.546875 48.742188 L 111.984375 51.226563 L 112.339844 51.847656 L 113.777344 54.332031 L 114.132813 54.953125 L 115.570313 57.4375 L 115.925781 58.058594 L 117.363281 60.542969 L 117.71875 61.164063 L 119.15625 63.648438 L 119.511719 64.269531 L 120.949219 66.753906 L 121.304688 67.375 L 122.742188 69.859375 L 123.097656 70.480469 L 124.535156 72.964844 L 124.890625 73.585938 L 126.328125 76.070313 L 126.683594 76.691406 L 127.761719 78.554688 "/>
<path style="fill:none;stroke-width:2.133957;stroke-linecap:butt;stroke-linejoin:round;stroke:rgb(0%,0%,0%);stroke-opacity:1;stroke-miterlimit:1;" d="M 92.257813 17.066406 L 92.425781 18.015625 L 92.761719 19.921875 L 92.929688 20.871094 L 93.097656 21.824219 L 93.265625 22.773438 L 93.601563 24.679688 L 93.769531 25.628906 L 93.9375 26.582031 L 94.105469 27.53125 L 94.441406 29.4375 L 94.609375 30.386719 L 94.777344 31.339844 L 94.945313 32.289063 L 95.28125 34.195313 L 95.449219 35.144531 L 95.785156 37.050781 L 95.949219 38 L 96.117188 38.953125 L 96.285156 39.902344 L 96.621094 41.808594 L 96.789063 42.757813 L 96.957031 43.710938 L 97.125 44.660156 L 97.460938 46.566406 L 97.628906 47.515625 L 97.796875 48.46875 L 97.964844 49.417969 L 98.300781 51.324219 L 98.46875 52.273438 L 98.636719 53.226563 L 98.804688 54.175781 L 99.140625 56.082031 L 99.308594 57.03125 L 99.476563 57.984375 L 99.640625 58.9375 L 99.808594 59.886719 L 99.976563 60.839844 L 100.144531 61.789063 L 100.480469 63.695313 L 100.648438 64.644531 L 100.816406 65.597656 L 100.984375 66.546875 L 101.320313 68.453125 L 101.488281 69.402344 L 101.65625 70.355469 L 101.824219 71.304688 L 102.160156 73.210938 L 102.328125 74.160156 L 102.496094 75.113281 L 102.664063 76.0625 L 103 77.96875 L 103.167969 78.917969 L 103.332031 79.871094 L 103.5 80.824219 L 103.667969 81.773438 L 103.835938 82.726563 L 104.003906 83.675781 L 104.339844 85.582031 L 104.507813 86.53125 L 104.675781 87.484375 L 104.84375 88.433594 L 105.179688 90.339844 L 105.347656 91.289063 L 105.515625 92.242188 L 105.683594 93.191406 L 106.019531 95.097656 L 106.1875 96.046875 L 106.355469 97 L 106.523438 97.949219 L 106.859375 99.855469 L 107.023438 100.804688 L 107.359375 102.710938 L 107.527344 103.660156 L 107.695313 104.613281 L 107.863281 105.5625 L 108.199219 107.46875 L 108.367188 108.417969 L 108.535156 109.371094 L 108.703125 110.320313 L 108.871094 111.273438 "/>
<path style="fill:none;stroke-width:2.133957;stroke-linecap:butt;stroke-linejoin:round;stroke:rgb(0%,0%,0%);stroke-opacity:1;stroke-miterlimit:1;" d="M 127.761719 78.554688 L 127.570313 78.886719 L 127.378906 79.214844 L 126.996094 79.878906 L 126.808594 80.207031 L 126.617188 80.539063 L 126.425781 80.867188 L 126.042969 81.53125 L 125.851563 81.859375 L 125.660156 82.191406 L 125.472656 82.519531 L 125.089844 83.183594 L 124.898438 83.511719 L 124.707031 83.84375 L 124.515625 84.171875 L 124.328125 84.503906 L 124.136719 84.835938 L 123.945313 85.164063 L 123.753906 85.496094 L 123.5625 85.824219 L 123.179688 86.488281 L 122.992188 86.816406 L 122.800781 87.148438 L 122.609375 87.476563 L 122.226563 88.140625 L 122.035156 88.46875 L 121.847656 88.800781 L 121.65625 89.132813 L 121.464844 89.460938 L 121.273438 89.792969 L 121.082031 90.121094 L 120.699219 90.785156 L 120.511719 91.113281 L 120.320313 91.445313 L 120.128906 91.773438 L 119.746094 92.4375 L 119.554688 92.765625 L 119.367188 93.097656 L 119.175781 93.425781 L 118.792969 94.089844 L 118.601563 94.417969 L 118.410156 94.75 L 118.21875 95.078125 L 118.03125 95.410156 L 117.839844 95.742188 L 117.648438 96.070313 L 117.457031 96.402344 L 117.265625 96.730469 L 117.074219 97.0625 L 116.886719 97.394531 L 116.695313 97.722656 L 116.503906 98.054688 L 116.3125 98.382813 L 115.929688 99.046875 L 115.738281 99.375 L 115.550781 99.707031 L 115.359375 100.035156 L 114.976563 100.699219 L 114.785156 101.027344 L 114.59375 101.359375 L 114.40625 101.6875 L 114.023438 102.351563 L 113.832031 102.679688 L 113.640625 103.011719 L 113.449219 103.339844 L 113.257813 103.671875 L 113.070313 104.003906 L 112.878906 104.332031 L 112.496094 104.996094 L 112.304688 105.324219 L 112.113281 105.65625 L 111.925781 105.984375 L 111.542969 106.648438 L 111.351563 106.976563 L 111.160156 107.308594 L 110.96875 107.636719 L 110.777344 107.96875 L 110.589844 108.300781 L 110.398438 108.628906 L 110.207031 108.960938 L 110.015625 109.289063 L 109.632813 109.953125 L 109.445313 110.28125 L 109.253906 110.613281 L 109.0625 110.941406 L 108.871094 111.273438 "/>
<path style="fill:none;stroke-width:2.133957;stroke-linecap:butt;stroke-linejoin:round;stroke:rgb(0%,0%,0%);stroke-opacity:1;stroke-miterlimit:1;" d="M 92.257813 17.066406 L 92.070313 18.148438 L 91.113281 23.558594 L 90.925781 24.640625 L 89.777344 31.132813 L 89.589844 32.214844 L 88.632813 37.625 L 88.445313 38.707031 L 87.296875 45.199219 L 87.109375 46.28125 L 86.152344 51.691406 L 85.964844 52.773438 L 85.773438 53.855469 L 85.582031 54.941406 L 84.816406 59.269531 L 84.628906 60.351563 L 83.671875 65.761719 L 83.484375 66.84375 L 82.335938 73.335938 L 82.148438 74.417969 L 81.191406 79.828125 L 81.003906 80.910156 L 79.855469 87.402344 L 79.667969 88.484375 L 78.710938 93.894531 L 78.523438 94.976563 L 77.375 101.46875 L 77.1875 102.550781 L 76.804688 104.714844 L 76.613281 105.800781 L 76.230469 107.964844 L 76.042969 109.046875 L 74.894531 115.539063 L 74.707031 116.621094 L 73.75 122.03125 L 73.5625 123.113281 L 73.371094 124.195313 "/>
<path style="fill:none;stroke-width:2.133957;stroke-linecap:butt;stroke-linejoin:round;stroke:rgb(0%,0%,0%);stroke-opacity:1;stroke-miterlimit:1;" d="M 127.761719 78.554688 L 126.660156 79.476563 L 126.113281 79.9375 L 125.5625 80.398438 L 125.015625 80.859375 L 123.914063 81.78125 L 123.367188 82.242188 L 122.265625 83.164063 L 121.71875 83.625 L 120.617188 84.546875 L 120.070313 85.007813 L 118.96875 85.929688 L 118.421875 86.390625 L 117.320313 87.3125 L 116.773438 87.777344 L 116.222656 88.238281 L 115.675781 88.699219 L 114.574219 89.621094 L 114.027344 90.082031 L 112.925781 91.003906 L 112.378906 91.464844 L 111.277344 92.386719 L 110.730469 92.847656 L 109.628906 93.769531 L 109.082031 94.230469 L 107.980469 95.152344 L 107.433594 95.613281 L 106.882813 96.074219 L 106.335938 96.535156 L 105.234375 97.457031 L 104.6875 97.917969 L 103.585938 98.839844 L 103.039063 99.300781 L 101.9375 100.222656 L 101.390625 100.683594 L 100.289063 101.605469 L 99.742188 102.066406 L 98.640625 102.988281 L 98.09375 103.449219 L 97.542969 103.910156 L 96.996094 104.371094 L 95.894531 105.292969 L 95.347656 105.753906 L 94.246094 106.675781 L 93.699219 107.136719 L 92.597656 108.058594 L 92.050781 108.519531 L 90.949219 109.441406 L 90.402344 109.902344 L 89.300781 110.824219 L 88.753906 111.285156 L 88.203125 111.746094 L 87.65625 112.207031 L 86.554688 113.128906 L 86.007813 113.589844 L 85.457031 114.054688 L 84.90625 114.515625 L 84.359375 114.976563 L 83.257813 115.898438 L 82.710938 116.359375 L 81.609375 117.28125 L 81.0625 117.742188 L 79.960938 118.664063 L 79.414063 119.125 L 78.863281 119.585938 L 78.316406 120.046875 L 77.214844 120.96875 L 76.667969 121.429688 L 75.566406 122.351563 L 75.019531 122.8125 L 73.917969 123.734375 L 73.371094 124.195313 "/>
<path style="fill:none;stroke-width:2.133957;stroke-linecap:butt;stroke-linejoin:round;stroke:rgb(0%,0%,0%);stroke-opacity:1;stroke-miterlimit:1;" d="M 127.761719 78.554688 L 126.851563 78.886719 L 125.945313 79.214844 L 125.035156 79.546875 L 124.128906 79.878906 L 123.222656 80.207031 L 122.3125 80.539063 L 121.40625 80.867188 L 120.496094 81.199219 L 119.589844 81.53125 L 118.679688 81.859375 L 117.773438 82.191406 L 116.863281 82.519531 L 115.050781 83.183594 L 114.140625 83.511719 L 113.234375 83.84375 L 112.324219 84.171875 L 111.417969 84.503906 L 110.507813 84.835938 L 109.601563 85.164063 L 108.691406 85.496094 L 107.785156 85.824219 L 106.875 86.15625 L 105.96875 86.488281 L 105.0625 86.816406 L 104.152344 87.148438 L 103.246094 87.476563 L 102.335938 87.808594 L 101.429688 88.140625 L 100.519531 88.46875 L 99.613281 88.800781 L 98.703125 89.132813 L 97.796875 89.460938 L 96.890625 89.792969 L 95.980469 90.121094 L 95.074219 90.453125 L 94.164063 90.785156 L 93.257813 91.113281 L 92.347656 91.445313 L 91.441406 91.773438 L 90.53125 92.105469 L 89.625 92.4375 L 88.714844 92.765625 L 87.808594 93.097656 L 86.902344 93.425781 L 85.992188 93.757813 L 85.085938 94.089844 L 84.175781 94.417969 L 83.269531 94.75 L 82.359375 95.078125 L 81.453125 95.410156 L 80.542969 95.742188 L 79.636719 96.070313 L 78.730469 96.402344 L 77.820313 96.730469 L 76.914063 97.0625 L 76.003906 97.394531 L 75.097656 97.722656 L 74.1875 98.054688 L 73.28125 98.382813 L 72.371094 98.714844 L 71.464844 99.046875 L 70.558594 99.375 L 69.648438 99.707031 L 68.742188 100.035156 L 67.832031 100.367188 L 66.925781 100.699219 L 66.015625 101.027344 L 65.109375 101.359375 L 64.199219 101.6875 L 63.292969 102.019531 L 62.382813 102.351563 L 61.476563 102.679688 L 60.570313 103.011719 L 59.660156 103.339844 L 58.753906 103.671875 L 57.84375 104.003906 L 56.9375 104.332031 L 56.027344 104.664063 L 55.121094 104.996094 L 54.210938 105.324219 L 53.304688 105.65625 L 52.398438 105.984375 L 51.488281 106.316406 L 50.582031 106.648438 L 49.671875 106.976563 L 48.765625 107.308594 L 47.855469 107.636719 L 46.949219 107.96875 L 46.039063 108.300781 L 45.132813 108.628906 L 44.226563 108.960938 L 43.316406 109.289063 L 42.410156 109.621094 L 41.5 109.953125 L 40.59375 110.28125 L 39.683594 110.613281 L 38.777344 110.941406 L 37.867188 111.273438 "/>
<path style="fill:none;stroke-width:2.133957;stroke-linecap:butt;stroke-linejoin:round;stroke:rgb(0%,0%,0%);stroke-opacity:1;stroke-miterlimit:1;" d="M 92.257813 17.066406 L 91.519531 17.6875 L 90.777344 18.308594 L 89.300781 19.550781 L 88.558594 20.171875 L 87.820313 20.792969 L 87.078125 21.414063 L 86.339844 22.035156 L 85.597656 22.65625 L 84.859375 23.277344 L 84.117188 23.898438 L 83.378906 24.519531 L 82.636719 25.140625 L 81.898438 25.761719 L 81.15625 26.382813 L 80.417969 27.003906 L 79.675781 27.625 L 78.9375 28.246094 L 78.195313 28.867188 L 77.457031 29.488281 L 76.714844 30.109375 L 75.976563 30.730469 L 75.234375 31.351563 L 74.496094 31.972656 L 73.753906 32.59375 L 73.015625 33.214844 L 72.273438 33.835938 L 71.535156 34.457031 L 70.792969 35.078125 L 70.054688 35.699219 L 69.3125 36.320313 L 68.574219 36.941406 L 67.832031 37.5625 L 67.09375 38.183594 L 66.351563 38.804688 L 65.613281 39.425781 L 64.871094 40.046875 L 64.132813 40.667969 L 63.390625 41.289063 L 62.652344 41.910156 L 61.910156 42.53125 L 61.171875 43.152344 L 60.429688 43.773438 L 59.691406 44.394531 L 58.949219 45.015625 L 58.210938 45.636719 L 57.46875 46.257813 L 56.730469 46.878906 L 55.988281 47.5 L 55.25 48.121094 L 54.507813 48.742188 L 53.769531 49.363281 L 53.027344 49.984375 L 52.289063 50.605469 L 51.546875 51.226563 L 50.808594 51.847656 L 50.066406 52.46875 L 49.328125 53.089844 L 48.585938 53.710938 L 47.847656 54.332031 L 47.105469 54.953125 L 46.367188 55.574219 L 45.625 56.195313 L 44.886719 56.816406 L 44.144531 57.4375 L 43.40625 58.058594 L 42.664063 58.679688 L 41.925781 59.300781 L 41.183594 59.921875 L 40.445313 60.542969 L 39.703125 61.164063 L 38.964844 61.785156 L 38.222656 62.40625 L 37.484375 63.027344 L 36.742188 63.648438 L 36.003906 64.269531 L 35.261719 64.890625 L 34.523438 65.511719 L 33.78125 66.132813 L 33.042969 66.753906 L 32.300781 67.375 L 31.5625 67.996094 L 30.820313 68.617188 L 30.082031 69.238281 L 29.339844 69.859375 L 27.863281 71.101563 L 27.121094 71.722656 L 26.382813 72.34375 L 25.640625 72.964844 L 24.902344 73.585938 L 24.160156 74.207031 L 23.421875 74.828125 L 22.679688 75.449219 L 21.941406 76.070313 L 21.199219 76.691406 L 20.460938 77.3125 L 19.71875 77.933594 L 18.980469 78.554688 "/>
<path style="fill:none;stroke-width:2.133957;stroke-linecap:butt;stroke-linejoin:round;stroke:rgb(0%,0%,0%);stroke-opacity:1;stroke-miterlimit:1;" d="M 121.199219 41.351563 L 119.136719 42.101563 L 118.101563 42.476563 L 117.070313 42.851563 L 116.039063 43.230469 L 115.003906 43.605469 L 112.941406 44.355469 L 111.90625 44.730469 L 110.875 45.109375 L 109.84375 45.484375 L 108.808594 45.859375 L 106.746094 46.609375 L 105.710938 46.988281 L 103.648438 47.738281 L 102.613281 48.113281 L 101.582031 48.488281 L 100.550781 48.867188 L 99.515625 49.242188 L 97.453125 49.992188 L 96.417969 50.371094 L 94.355469 51.121094 L 93.320313 51.496094 L 92.289063 51.871094 L 91.257813 52.25 L 90.222656 52.625 L 88.160156 53.375 L 87.125 53.75 L 86.09375 54.128906 L 85.0625 54.503906 L 84.027344 54.878906 L 81.964844 55.628906 L 80.929688 56.007813 L 78.867188 56.757813 L 77.832031 57.132813 L 76.800781 57.507813 L 75.769531 57.886719 L 74.734375 58.261719 L 72.671875 59.011719 L 71.636719 59.390625 L 69.574219 60.140625 L 68.539063 60.515625 L 67.507813 60.890625 L 66.476563 61.269531 L 65.441406 61.644531 L 63.378906 62.394531 L 62.34375 62.769531 L 61.3125 63.148438 L 60.28125 63.523438 L 59.246094 63.898438 L 57.183594 64.648438 L 56.148438 65.027344 L 54.085938 65.777344 L 53.050781 66.152344 L 52.019531 66.527344 L 50.988281 66.90625 L 49.957031 67.28125 L 48.921875 67.65625 L 47.890625 68.03125 L 46.859375 68.410156 L 45.824219 68.785156 L 43.761719 69.535156 L 42.726563 69.910156 L 41.695313 70.289063 L 40.664063 70.664063 L 39.628906 71.039063 L 37.566406 71.789063 L 36.53125 72.167969 L 34.46875 72.917969 L 33.433594 73.292969 L 32.402344 73.667969 L 31.371094 74.046875 L 30.335938 74.421875 L 28.273438 75.171875 L 27.238281 75.550781 L 25.175781 76.300781 L 24.140625 76.675781 L 23.109375 77.050781 L 22.078125 77.429688 L 21.042969 77.804688 L 18.980469 78.554688 "/>
<path style=" stroke:none;fill-rule:nonzero;fill:rgb(0%,26.27451%,30.980392%);fill-opacity:1;" d="M 103.285156 17.066406 C 103.285156 23.152344 98.347656 28.089844 92.257813 28.089844 C 86.171875 28.089844 81.234375 23.152344 81.234375 17.066406 C 81.234375 10.976563 86.171875 6.042969 92.257813 6.042969 C 98.347656 6.042969 103.285156 10.976563 103.285156 17.066406 "/>
<path style=" stroke:none;fill-rule:nonzero;fill:rgb(0%,26.27451%,30.980392%);fill-opacity:1;" d="M 132.226563 41.351563 C 132.226563 47.4375 127.289063 52.375 121.199219 52.375 C 115.113281 52.375 110.175781 47.4375 110.175781 41.351563 C 110.175781 35.261719 115.113281 30.324219 121.199219 30.324219 C 127.289063 30.324219 132.226563 35.261719 132.226563 41.351563 "/>
<path style=" stroke:none;fill-rule:nonzero;fill:rgb(0%,26.27451%,30.980392%);fill-opacity:1;" d="M 138.785156 78.554688 C 138.785156 84.644531 133.847656 89.578125 127.761719 89.578125 C 121.671875 89.578125 116.738281 84.644531 116.738281 78.554688 C 116.738281 72.46875 121.671875 67.53125 127.761719 67.53125 C 133.847656 67.53125 138.785156 72.46875 138.785156 78.554688 "/>
<path style=" stroke:none;fill-rule:nonzero;fill:rgb(0%,26.27451%,30.980392%);fill-opacity:1;" d="M 119.894531 111.273438 C 119.894531 117.363281 114.960938 122.296875 108.871094 122.296875 C 102.78125 122.296875 97.847656 117.363281 97.847656 111.273438 C 97.847656 105.183594 102.78125 100.25 108.871094 100.25 C 114.960938 100.25 119.894531 105.183594 119.894531 111.273438 "/>
<path style=" stroke:none;fill-rule:nonzero;fill:rgb(0%,26.27451%,30.980392%);fill-opacity:1;" d="M 84.394531 124.195313 C 84.394531 130.285156 79.457031 135.21875 73.371094 135.21875 C 67.28125 135.21875 62.347656 130.285156 62.347656 124.195313 C 62.347656 118.105469 67.28125 113.171875 73.371094 113.171875 C 79.457031 113.171875 84.394531 118.105469 84.394531 124.195313 "/>
<path style=" stroke:none;fill-rule:nonzero;fill:rgb(0%,26.27451%,30.980392%);fill-opacity:1;" d="M 48.894531 111.273438 C 48.894531 117.363281 43.957031 122.296875 37.867188 122.296875 C 31.78125 122.296875 26.84375 117.363281 26.84375 111.273438 C 26.84375 105.183594 31.78125 100.25 37.867188 100.25 C 43.957031 100.25 48.894531 105.183594 48.894531 111.273438 "/>
<path style=" stroke:none;fill-rule:nonzero;fill:rgb(0%,26.27451%,30.980392%);fill-opacity:1;" d="M 30.003906 78.554688 C 30.003906 84.644531 25.066406 89.578125 18.980469 89.578125 C 12.890625 89.578125 7.953125 84.644531 7.953125 78.554688 C 7.953125 72.46875 12.890625 67.53125 18.980469 67.53125 C 25.066406 67.53125 30.003906 72.46875 30.003906 78.554688 "/>
<path style=" stroke:none;fill-rule:nonzero;fill:rgb(0%,26.27451%,30.980392%);fill-opacity:1;" d="M 36.5625 41.351563 C 36.5625 47.4375 31.628906 52.375 25.539063 52.375 C 19.449219 52.375 14.515625 47.4375 14.515625 41.351563 C 14.515625 35.261719 19.449219 30.324219 25.539063 30.324219 C 31.628906 30.324219 36.5625 35.261719 36.5625 41.351563 "/>
<path style=" stroke:none;fill-rule:nonzero;fill:rgb(0%,26.27451%,30.980392%);fill-opacity:1;" d="M 65.503906 17.066406 C 65.503906 23.152344 60.570313 28.089844 54.480469 28.089844 C 48.390625 28.089844 43.457031 23.152344 43.457031 17.066406 C 43.457031 10.976563 48.390625 6.042969 54.480469 6.042969 C 60.570313 6.042969 65.503906 10.976563 65.503906 17.066406 "/>
</g>
</svg>
